<mxfile host="Electron" modified="2024-05-03T19:57:57.154Z" agent="Mozilla/5.0 (Windows NT 10.0; Win64; x64) AppleWebKit/537.36 (KHTML, like Gecko) draw.io/21.2.8 Chrome/112.0.5615.165 Electron/24.2.0 Safari/537.36" etag="-kIImXs-JLdABxisIrzJ" version="21.2.8" type="device">
  <diagram name="Página-1" id="e_RjofRNkM223xmzQ_K1">
    <mxGraphModel dx="1793" dy="1055" grid="1" gridSize="10" guides="1" tooltips="1" connect="1" arrows="1" fold="1" page="1" pageScale="1" pageWidth="827" pageHeight="1169" math="0" shadow="0">
      <root>
        <mxCell id="0" />
        <mxCell id="1" parent="0" />
        <mxCell id="At78oSrsm9q2pV1PJg2M-2" value="Assets" style="childLayout=tableLayout;recursiveResize=0;strokeColor=#98bf21;fillColor=#A7C942;shadow=1;" parent="1" vertex="1">
          <mxGeometry x="10" y="310" width="320" height="749.9999999999998" as="geometry" />
        </mxCell>
        <mxCell id="At78oSrsm9q2pV1PJg2M-3" style="shape=tableRow;horizontal=0;startSize=0;swimlaneHead=0;swimlaneBody=0;top=0;left=0;bottom=0;right=0;dropTarget=0;collapsible=0;recursiveResize=0;expand=0;fontStyle=0;strokeColor=inherit;fillColor=#ffffff;" parent="At78oSrsm9q2pV1PJg2M-2" vertex="1">
          <mxGeometry width="320" height="37" as="geometry" />
        </mxCell>
        <mxCell id="At78oSrsm9q2pV1PJg2M-4" value="Tarea" style="connectable=0;recursiveResize=0;strokeColor=#314354;fillColor=#647687;align=center;fontStyle=1;html=1;fontColor=#ffffff;" parent="At78oSrsm9q2pV1PJg2M-3" vertex="1">
          <mxGeometry width="106" height="37" as="geometry">
            <mxRectangle width="106" height="37" as="alternateBounds" />
          </mxGeometry>
        </mxCell>
        <mxCell id="At78oSrsm9q2pV1PJg2M-5" value="Duración" style="connectable=0;recursiveResize=0;strokeColor=#314354;fillColor=#647687;align=center;fontStyle=1;html=1;fontColor=#ffffff;" parent="At78oSrsm9q2pV1PJg2M-3" vertex="1">
          <mxGeometry x="106" width="108" height="37" as="geometry">
            <mxRectangle width="108" height="37" as="alternateBounds" />
          </mxGeometry>
        </mxCell>
        <mxCell id="At78oSrsm9q2pV1PJg2M-6" value="Predecesor" style="connectable=0;recursiveResize=0;strokeColor=#314354;fillColor=#647687;align=center;fontStyle=1;html=1;fontColor=#ffffff;" parent="At78oSrsm9q2pV1PJg2M-3" vertex="1">
          <mxGeometry x="214" width="106" height="37" as="geometry">
            <mxRectangle width="106" height="37" as="alternateBounds" />
          </mxGeometry>
        </mxCell>
        <mxCell id="At78oSrsm9q2pV1PJg2M-7" value="" style="shape=tableRow;horizontal=0;startSize=0;swimlaneHead=0;swimlaneBody=0;top=0;left=0;bottom=0;right=0;dropTarget=0;collapsible=0;recursiveResize=0;expand=0;fontStyle=0;strokeColor=inherit;fillColor=#ffffff;" parent="At78oSrsm9q2pV1PJg2M-2" vertex="1">
          <mxGeometry y="37" width="320" height="36" as="geometry" />
        </mxCell>
        <mxCell id="At78oSrsm9q2pV1PJg2M-8" value="(A) Investigación" style="connectable=0;recursiveResize=0;align=center;whiteSpace=wrap;html=1;" parent="At78oSrsm9q2pV1PJg2M-7" vertex="1">
          <mxGeometry width="106" height="36" as="geometry">
            <mxRectangle width="106" height="36" as="alternateBounds" />
          </mxGeometry>
        </mxCell>
        <mxCell id="At78oSrsm9q2pV1PJg2M-9" value="2 Días" style="connectable=0;recursiveResize=0;align=center;whiteSpace=wrap;html=1;" parent="At78oSrsm9q2pV1PJg2M-7" vertex="1">
          <mxGeometry x="106" width="108" height="36" as="geometry">
            <mxRectangle width="108" height="36" as="alternateBounds" />
          </mxGeometry>
        </mxCell>
        <mxCell id="At78oSrsm9q2pV1PJg2M-10" value="" style="connectable=0;recursiveResize=0;align=center;whiteSpace=wrap;html=1;" parent="At78oSrsm9q2pV1PJg2M-7" vertex="1">
          <mxGeometry x="214" width="106" height="36" as="geometry">
            <mxRectangle width="106" height="36" as="alternateBounds" />
          </mxGeometry>
        </mxCell>
        <mxCell id="At78oSrsm9q2pV1PJg2M-35" style="shape=tableRow;horizontal=0;startSize=0;swimlaneHead=0;swimlaneBody=0;top=0;left=0;bottom=0;right=0;dropTarget=0;collapsible=0;recursiveResize=0;expand=0;fontStyle=1;" parent="At78oSrsm9q2pV1PJg2M-2" vertex="1">
          <mxGeometry y="73" width="320" height="35" as="geometry" />
        </mxCell>
        <mxCell id="At78oSrsm9q2pV1PJg2M-36" value="(B) FODA" style="connectable=0;recursiveResize=0;whiteSpace=wrap;html=1;" parent="At78oSrsm9q2pV1PJg2M-35" vertex="1">
          <mxGeometry width="106" height="35" as="geometry">
            <mxRectangle width="106" height="35" as="alternateBounds" />
          </mxGeometry>
        </mxCell>
        <mxCell id="At78oSrsm9q2pV1PJg2M-37" value="1 Día" style="connectable=0;recursiveResize=0;whiteSpace=wrap;html=1;" parent="At78oSrsm9q2pV1PJg2M-35" vertex="1">
          <mxGeometry x="106" width="108" height="35" as="geometry">
            <mxRectangle width="108" height="35" as="alternateBounds" />
          </mxGeometry>
        </mxCell>
        <mxCell id="At78oSrsm9q2pV1PJg2M-38" value="A" style="connectable=0;recursiveResize=0;whiteSpace=wrap;html=1;" parent="At78oSrsm9q2pV1PJg2M-35" vertex="1">
          <mxGeometry x="214" width="106" height="35" as="geometry">
            <mxRectangle width="106" height="35" as="alternateBounds" />
          </mxGeometry>
        </mxCell>
        <mxCell id="At78oSrsm9q2pV1PJg2M-11" value="" style="shape=tableRow;horizontal=0;startSize=0;swimlaneHead=0;swimlaneBody=0;top=0;left=0;bottom=0;right=0;dropTarget=0;collapsible=0;recursiveResize=0;expand=0;fontStyle=1;" parent="At78oSrsm9q2pV1PJg2M-2" vertex="1">
          <mxGeometry y="108" width="320" height="35" as="geometry" />
        </mxCell>
        <mxCell id="At78oSrsm9q2pV1PJg2M-12" value="(C) Prototipado" style="connectable=0;recursiveResize=0;whiteSpace=wrap;html=1;" parent="At78oSrsm9q2pV1PJg2M-11" vertex="1">
          <mxGeometry width="106" height="35" as="geometry">
            <mxRectangle width="106" height="35" as="alternateBounds" />
          </mxGeometry>
        </mxCell>
        <mxCell id="At78oSrsm9q2pV1PJg2M-13" value="3 Días" style="connectable=0;recursiveResize=0;whiteSpace=wrap;html=1;" parent="At78oSrsm9q2pV1PJg2M-11" vertex="1">
          <mxGeometry x="106" width="108" height="35" as="geometry">
            <mxRectangle width="108" height="35" as="alternateBounds" />
          </mxGeometry>
        </mxCell>
        <mxCell id="At78oSrsm9q2pV1PJg2M-14" value="B" style="connectable=0;recursiveResize=0;whiteSpace=wrap;html=1;" parent="At78oSrsm9q2pV1PJg2M-11" vertex="1">
          <mxGeometry x="214" width="106" height="35" as="geometry">
            <mxRectangle width="106" height="35" as="alternateBounds" />
          </mxGeometry>
        </mxCell>
        <mxCell id="At78oSrsm9q2pV1PJg2M-27" style="shape=tableRow;horizontal=0;startSize=0;swimlaneHead=0;swimlaneBody=0;top=0;left=0;bottom=0;right=0;dropTarget=0;collapsible=0;recursiveResize=0;expand=0;fontStyle=1;" parent="At78oSrsm9q2pV1PJg2M-2" vertex="1">
          <mxGeometry y="143" width="320" height="36" as="geometry" />
        </mxCell>
        <mxCell id="At78oSrsm9q2pV1PJg2M-28" value="(D) Presentacion del Proyecto" style="connectable=0;recursiveResize=0;whiteSpace=wrap;html=1;" parent="At78oSrsm9q2pV1PJg2M-27" vertex="1">
          <mxGeometry width="106" height="36" as="geometry">
            <mxRectangle width="106" height="36" as="alternateBounds" />
          </mxGeometry>
        </mxCell>
        <mxCell id="At78oSrsm9q2pV1PJg2M-29" value="3 Días" style="connectable=0;recursiveResize=0;whiteSpace=wrap;html=1;" parent="At78oSrsm9q2pV1PJg2M-27" vertex="1">
          <mxGeometry x="106" width="108" height="36" as="geometry">
            <mxRectangle width="108" height="36" as="alternateBounds" />
          </mxGeometry>
        </mxCell>
        <mxCell id="At78oSrsm9q2pV1PJg2M-30" value="C" style="connectable=0;recursiveResize=0;whiteSpace=wrap;html=1;" parent="At78oSrsm9q2pV1PJg2M-27" vertex="1">
          <mxGeometry x="214" width="106" height="36" as="geometry">
            <mxRectangle width="106" height="36" as="alternateBounds" />
          </mxGeometry>
        </mxCell>
        <mxCell id="At78oSrsm9q2pV1PJg2M-19" value="" style="shape=tableRow;horizontal=0;startSize=0;swimlaneHead=0;swimlaneBody=0;top=0;left=0;bottom=0;right=0;dropTarget=0;collapsible=0;recursiveResize=0;expand=0;fontStyle=1;" parent="At78oSrsm9q2pV1PJg2M-2" vertex="1">
          <mxGeometry y="179" width="320" height="37" as="geometry" />
        </mxCell>
        <mxCell id="At78oSrsm9q2pV1PJg2M-20" value="(E)Tablero Kanban" style="connectable=0;recursiveResize=0;whiteSpace=wrap;html=1;" parent="At78oSrsm9q2pV1PJg2M-19" vertex="1">
          <mxGeometry width="106" height="37" as="geometry">
            <mxRectangle width="106" height="37" as="alternateBounds" />
          </mxGeometry>
        </mxCell>
        <mxCell id="At78oSrsm9q2pV1PJg2M-21" value="1 Día" style="connectable=0;recursiveResize=0;whiteSpace=wrap;html=1;" parent="At78oSrsm9q2pV1PJg2M-19" vertex="1">
          <mxGeometry x="106" width="108" height="37" as="geometry">
            <mxRectangle width="108" height="37" as="alternateBounds" />
          </mxGeometry>
        </mxCell>
        <mxCell id="At78oSrsm9q2pV1PJg2M-22" value="D" style="connectable=0;recursiveResize=0;whiteSpace=wrap;html=1;" parent="At78oSrsm9q2pV1PJg2M-19" vertex="1">
          <mxGeometry x="214" width="106" height="37" as="geometry">
            <mxRectangle width="106" height="37" as="alternateBounds" />
          </mxGeometry>
        </mxCell>
        <mxCell id="At78oSrsm9q2pV1PJg2M-15" value="" style="shape=tableRow;horizontal=0;startSize=0;swimlaneHead=0;swimlaneBody=0;top=0;left=0;bottom=0;right=0;dropTarget=0;collapsible=0;recursiveResize=0;expand=0;fontStyle=0;" parent="At78oSrsm9q2pV1PJg2M-2" vertex="1">
          <mxGeometry y="216" width="320" height="35" as="geometry" />
        </mxCell>
        <mxCell id="At78oSrsm9q2pV1PJg2M-16" value="(F) Requerimientos" style="connectable=0;recursiveResize=0;fontStyle=0;align=center;whiteSpace=wrap;html=1;" parent="At78oSrsm9q2pV1PJg2M-15" vertex="1">
          <mxGeometry width="106" height="35" as="geometry">
            <mxRectangle width="106" height="35" as="alternateBounds" />
          </mxGeometry>
        </mxCell>
        <mxCell id="At78oSrsm9q2pV1PJg2M-17" value="2 Días" style="connectable=0;recursiveResize=0;fontStyle=0;align=center;whiteSpace=wrap;html=1;" parent="At78oSrsm9q2pV1PJg2M-15" vertex="1">
          <mxGeometry x="106" width="108" height="35" as="geometry">
            <mxRectangle width="108" height="35" as="alternateBounds" />
          </mxGeometry>
        </mxCell>
        <mxCell id="At78oSrsm9q2pV1PJg2M-18" value="D" style="connectable=0;recursiveResize=0;fontStyle=0;align=center;whiteSpace=wrap;html=1;" parent="At78oSrsm9q2pV1PJg2M-15" vertex="1">
          <mxGeometry x="214" width="106" height="35" as="geometry">
            <mxRectangle width="106" height="35" as="alternateBounds" />
          </mxGeometry>
        </mxCell>
        <mxCell id="At78oSrsm9q2pV1PJg2M-23" style="shape=tableRow;horizontal=0;startSize=0;swimlaneHead=0;swimlaneBody=0;top=0;left=0;bottom=0;right=0;dropTarget=0;collapsible=0;recursiveResize=0;expand=0;fontStyle=1;" parent="At78oSrsm9q2pV1PJg2M-2" vertex="1">
          <mxGeometry y="251" width="320" height="33" as="geometry" />
        </mxCell>
        <mxCell id="At78oSrsm9q2pV1PJg2M-24" value="(G) Diagrama de Gantt" style="connectable=0;recursiveResize=0;whiteSpace=wrap;html=1;" parent="At78oSrsm9q2pV1PJg2M-23" vertex="1">
          <mxGeometry width="106" height="33" as="geometry">
            <mxRectangle width="106" height="33" as="alternateBounds" />
          </mxGeometry>
        </mxCell>
        <mxCell id="At78oSrsm9q2pV1PJg2M-25" value="1 Día" style="connectable=0;recursiveResize=0;whiteSpace=wrap;html=1;" parent="At78oSrsm9q2pV1PJg2M-23" vertex="1">
          <mxGeometry x="106" width="108" height="33" as="geometry">
            <mxRectangle width="108" height="33" as="alternateBounds" />
          </mxGeometry>
        </mxCell>
        <mxCell id="At78oSrsm9q2pV1PJg2M-26" value="E, F" style="connectable=0;recursiveResize=0;whiteSpace=wrap;html=1;" parent="At78oSrsm9q2pV1PJg2M-23" vertex="1">
          <mxGeometry x="214" width="106" height="33" as="geometry">
            <mxRectangle width="106" height="33" as="alternateBounds" />
          </mxGeometry>
        </mxCell>
        <mxCell id="At78oSrsm9q2pV1PJg2M-31" style="shape=tableRow;horizontal=0;startSize=0;swimlaneHead=0;swimlaneBody=0;top=0;left=0;bottom=0;right=0;dropTarget=0;collapsible=0;recursiveResize=0;expand=0;fontStyle=1;" parent="At78oSrsm9q2pV1PJg2M-2" vertex="1">
          <mxGeometry y="284" width="320" height="35" as="geometry" />
        </mxCell>
        <mxCell id="At78oSrsm9q2pV1PJg2M-32" value="(H) CPM" style="connectable=0;recursiveResize=0;whiteSpace=wrap;html=1;" parent="At78oSrsm9q2pV1PJg2M-31" vertex="1">
          <mxGeometry width="106" height="35" as="geometry">
            <mxRectangle width="106" height="35" as="alternateBounds" />
          </mxGeometry>
        </mxCell>
        <mxCell id="At78oSrsm9q2pV1PJg2M-33" value="2 Días" style="connectable=0;recursiveResize=0;whiteSpace=wrap;html=1;" parent="At78oSrsm9q2pV1PJg2M-31" vertex="1">
          <mxGeometry x="106" width="108" height="35" as="geometry">
            <mxRectangle width="108" height="35" as="alternateBounds" />
          </mxGeometry>
        </mxCell>
        <mxCell id="At78oSrsm9q2pV1PJg2M-34" value="G" style="connectable=0;recursiveResize=0;whiteSpace=wrap;html=1;" parent="At78oSrsm9q2pV1PJg2M-31" vertex="1">
          <mxGeometry x="214" width="106" height="35" as="geometry">
            <mxRectangle width="106" height="35" as="alternateBounds" />
          </mxGeometry>
        </mxCell>
        <mxCell id="At78oSrsm9q2pV1PJg2M-39" style="shape=tableRow;horizontal=0;startSize=0;swimlaneHead=0;swimlaneBody=0;top=0;left=0;bottom=0;right=0;dropTarget=0;collapsible=0;recursiveResize=0;expand=0;fontStyle=1;" parent="At78oSrsm9q2pV1PJg2M-2" vertex="1">
          <mxGeometry y="319" width="320" height="35" as="geometry" />
        </mxCell>
        <mxCell id="At78oSrsm9q2pV1PJg2M-40" value="(I) DER" style="connectable=0;recursiveResize=0;whiteSpace=wrap;html=1;" parent="At78oSrsm9q2pV1PJg2M-39" vertex="1">
          <mxGeometry width="106" height="35" as="geometry">
            <mxRectangle width="106" height="35" as="alternateBounds" />
          </mxGeometry>
        </mxCell>
        <mxCell id="At78oSrsm9q2pV1PJg2M-41" value="2 Días" style="connectable=0;recursiveResize=0;whiteSpace=wrap;html=1;" parent="At78oSrsm9q2pV1PJg2M-39" vertex="1">
          <mxGeometry x="106" width="108" height="35" as="geometry">
            <mxRectangle width="108" height="35" as="alternateBounds" />
          </mxGeometry>
        </mxCell>
        <mxCell id="At78oSrsm9q2pV1PJg2M-42" value="F, H" style="connectable=0;recursiveResize=0;whiteSpace=wrap;html=1;" parent="At78oSrsm9q2pV1PJg2M-39" vertex="1">
          <mxGeometry x="214" width="106" height="35" as="geometry">
            <mxRectangle width="106" height="35" as="alternateBounds" />
          </mxGeometry>
        </mxCell>
        <mxCell id="At78oSrsm9q2pV1PJg2M-43" style="shape=tableRow;horizontal=0;startSize=0;swimlaneHead=0;swimlaneBody=0;top=0;left=0;bottom=0;right=0;dropTarget=0;collapsible=0;recursiveResize=0;expand=0;fontStyle=1;" parent="At78oSrsm9q2pV1PJg2M-2" vertex="1">
          <mxGeometry y="354" width="320" height="36" as="geometry" />
        </mxCell>
        <mxCell id="At78oSrsm9q2pV1PJg2M-44" value="(J) Base de Datos" style="connectable=0;recursiveResize=0;whiteSpace=wrap;html=1;" parent="At78oSrsm9q2pV1PJg2M-43" vertex="1">
          <mxGeometry width="106" height="36" as="geometry">
            <mxRectangle width="106" height="36" as="alternateBounds" />
          </mxGeometry>
        </mxCell>
        <mxCell id="At78oSrsm9q2pV1PJg2M-45" value="1 Día" style="connectable=0;recursiveResize=0;whiteSpace=wrap;html=1;" parent="At78oSrsm9q2pV1PJg2M-43" vertex="1">
          <mxGeometry x="106" width="108" height="36" as="geometry">
            <mxRectangle width="108" height="36" as="alternateBounds" />
          </mxGeometry>
        </mxCell>
        <mxCell id="At78oSrsm9q2pV1PJg2M-46" value="I" style="connectable=0;recursiveResize=0;whiteSpace=wrap;html=1;" parent="At78oSrsm9q2pV1PJg2M-43" vertex="1">
          <mxGeometry x="214" width="106" height="36" as="geometry">
            <mxRectangle width="106" height="36" as="alternateBounds" />
          </mxGeometry>
        </mxCell>
        <mxCell id="At78oSrsm9q2pV1PJg2M-47" style="shape=tableRow;horizontal=0;startSize=0;swimlaneHead=0;swimlaneBody=0;top=0;left=0;bottom=0;right=0;dropTarget=0;collapsible=0;recursiveResize=0;expand=0;fontStyle=1;" parent="At78oSrsm9q2pV1PJg2M-2" vertex="1">
          <mxGeometry y="390" width="320" height="34" as="geometry" />
        </mxCell>
        <mxCell id="At78oSrsm9q2pV1PJg2M-48" value="(K) D. Flujo de Datos" style="connectable=0;recursiveResize=0;whiteSpace=wrap;html=1;" parent="At78oSrsm9q2pV1PJg2M-47" vertex="1">
          <mxGeometry width="106" height="34" as="geometry">
            <mxRectangle width="106" height="34" as="alternateBounds" />
          </mxGeometry>
        </mxCell>
        <mxCell id="At78oSrsm9q2pV1PJg2M-49" value="2 Días" style="connectable=0;recursiveResize=0;whiteSpace=wrap;html=1;" parent="At78oSrsm9q2pV1PJg2M-47" vertex="1">
          <mxGeometry x="106" width="108" height="34" as="geometry">
            <mxRectangle width="108" height="34" as="alternateBounds" />
          </mxGeometry>
        </mxCell>
        <mxCell id="At78oSrsm9q2pV1PJg2M-50" value="J" style="connectable=0;recursiveResize=0;whiteSpace=wrap;html=1;" parent="At78oSrsm9q2pV1PJg2M-47" vertex="1">
          <mxGeometry x="214" width="106" height="34" as="geometry">
            <mxRectangle width="106" height="34" as="alternateBounds" />
          </mxGeometry>
        </mxCell>
        <mxCell id="At78oSrsm9q2pV1PJg2M-51" style="shape=tableRow;horizontal=0;startSize=0;swimlaneHead=0;swimlaneBody=0;top=0;left=0;bottom=0;right=0;dropTarget=0;collapsible=0;recursiveResize=0;expand=0;fontStyle=1;" parent="At78oSrsm9q2pV1PJg2M-2" vertex="1">
          <mxGeometry y="424" width="320" height="36" as="geometry" />
        </mxCell>
        <mxCell id="At78oSrsm9q2pV1PJg2M-52" value="(L) D. Caso de Uso" style="connectable=0;recursiveResize=0;whiteSpace=wrap;html=1;" parent="At78oSrsm9q2pV1PJg2M-51" vertex="1">
          <mxGeometry width="106" height="36" as="geometry">
            <mxRectangle width="106" height="36" as="alternateBounds" />
          </mxGeometry>
        </mxCell>
        <mxCell id="At78oSrsm9q2pV1PJg2M-53" value="2 Días" style="connectable=0;recursiveResize=0;whiteSpace=wrap;html=1;" parent="At78oSrsm9q2pV1PJg2M-51" vertex="1">
          <mxGeometry x="106" width="108" height="36" as="geometry">
            <mxRectangle width="108" height="36" as="alternateBounds" />
          </mxGeometry>
        </mxCell>
        <mxCell id="At78oSrsm9q2pV1PJg2M-54" value="J" style="connectable=0;recursiveResize=0;whiteSpace=wrap;html=1;" parent="At78oSrsm9q2pV1PJg2M-51" vertex="1">
          <mxGeometry x="214" width="106" height="36" as="geometry">
            <mxRectangle width="106" height="36" as="alternateBounds" />
          </mxGeometry>
        </mxCell>
        <mxCell id="At78oSrsm9q2pV1PJg2M-55" style="shape=tableRow;horizontal=0;startSize=0;swimlaneHead=0;swimlaneBody=0;top=0;left=0;bottom=0;right=0;dropTarget=0;collapsible=0;recursiveResize=0;expand=0;fontStyle=1;" parent="At78oSrsm9q2pV1PJg2M-2" vertex="1">
          <mxGeometry y="460" width="320" height="35" as="geometry" />
        </mxCell>
        <mxCell id="At78oSrsm9q2pV1PJg2M-56" value="(M) D. de Secuencia" style="connectable=0;recursiveResize=0;whiteSpace=wrap;html=1;" parent="At78oSrsm9q2pV1PJg2M-55" vertex="1">
          <mxGeometry width="106" height="35" as="geometry">
            <mxRectangle width="106" height="35" as="alternateBounds" />
          </mxGeometry>
        </mxCell>
        <mxCell id="At78oSrsm9q2pV1PJg2M-57" value="2 Días" style="connectable=0;recursiveResize=0;whiteSpace=wrap;html=1;" parent="At78oSrsm9q2pV1PJg2M-55" vertex="1">
          <mxGeometry x="106" width="108" height="35" as="geometry">
            <mxRectangle width="108" height="35" as="alternateBounds" />
          </mxGeometry>
        </mxCell>
        <mxCell id="At78oSrsm9q2pV1PJg2M-58" value="J" style="connectable=0;recursiveResize=0;whiteSpace=wrap;html=1;" parent="At78oSrsm9q2pV1PJg2M-55" vertex="1">
          <mxGeometry x="214" width="106" height="35" as="geometry">
            <mxRectangle width="106" height="35" as="alternateBounds" />
          </mxGeometry>
        </mxCell>
        <mxCell id="At78oSrsm9q2pV1PJg2M-59" style="shape=tableRow;horizontal=0;startSize=0;swimlaneHead=0;swimlaneBody=0;top=0;left=0;bottom=0;right=0;dropTarget=0;collapsible=0;recursiveResize=0;expand=0;fontStyle=1;" parent="At78oSrsm9q2pV1PJg2M-2" vertex="1">
          <mxGeometry y="495" width="320" height="55" as="geometry" />
        </mxCell>
        <mxCell id="At78oSrsm9q2pV1PJg2M-60" value="(N) D. de Transicion de Estados" style="connectable=0;recursiveResize=0;whiteSpace=wrap;html=1;" parent="At78oSrsm9q2pV1PJg2M-59" vertex="1">
          <mxGeometry width="106" height="55" as="geometry">
            <mxRectangle width="106" height="55" as="alternateBounds" />
          </mxGeometry>
        </mxCell>
        <mxCell id="At78oSrsm9q2pV1PJg2M-61" value="2 Días" style="connectable=0;recursiveResize=0;whiteSpace=wrap;html=1;" parent="At78oSrsm9q2pV1PJg2M-59" vertex="1">
          <mxGeometry x="106" width="108" height="55" as="geometry">
            <mxRectangle width="108" height="55" as="alternateBounds" />
          </mxGeometry>
        </mxCell>
        <mxCell id="At78oSrsm9q2pV1PJg2M-62" value="J" style="connectable=0;recursiveResize=0;whiteSpace=wrap;html=1;" parent="At78oSrsm9q2pV1PJg2M-59" vertex="1">
          <mxGeometry x="214" width="106" height="55" as="geometry">
            <mxRectangle width="106" height="55" as="alternateBounds" />
          </mxGeometry>
        </mxCell>
        <mxCell id="At78oSrsm9q2pV1PJg2M-63" style="shape=tableRow;horizontal=0;startSize=0;swimlaneHead=0;swimlaneBody=0;top=0;left=0;bottom=0;right=0;dropTarget=0;collapsible=0;recursiveResize=0;expand=0;fontStyle=1;" parent="At78oSrsm9q2pV1PJg2M-2" vertex="1">
          <mxGeometry y="550" width="320" height="40" as="geometry" />
        </mxCell>
        <mxCell id="At78oSrsm9q2pV1PJg2M-64" value="(Ñ) D. de Contexto" style="connectable=0;recursiveResize=0;whiteSpace=wrap;html=1;" parent="At78oSrsm9q2pV1PJg2M-63" vertex="1">
          <mxGeometry width="106" height="40" as="geometry">
            <mxRectangle width="106" height="40" as="alternateBounds" />
          </mxGeometry>
        </mxCell>
        <mxCell id="At78oSrsm9q2pV1PJg2M-65" value="2 Días" style="connectable=0;recursiveResize=0;whiteSpace=wrap;html=1;" parent="At78oSrsm9q2pV1PJg2M-63" vertex="1">
          <mxGeometry x="106" width="108" height="40" as="geometry">
            <mxRectangle width="108" height="40" as="alternateBounds" />
          </mxGeometry>
        </mxCell>
        <mxCell id="At78oSrsm9q2pV1PJg2M-66" value="J" style="connectable=0;recursiveResize=0;whiteSpace=wrap;html=1;" parent="At78oSrsm9q2pV1PJg2M-63" vertex="1">
          <mxGeometry x="214" width="106" height="40" as="geometry">
            <mxRectangle width="106" height="40" as="alternateBounds" />
          </mxGeometry>
        </mxCell>
        <mxCell id="At78oSrsm9q2pV1PJg2M-67" style="shape=tableRow;horizontal=0;startSize=0;swimlaneHead=0;swimlaneBody=0;top=0;left=0;bottom=0;right=0;dropTarget=0;collapsible=0;recursiveResize=0;expand=0;fontStyle=1;" parent="At78oSrsm9q2pV1PJg2M-2" vertex="1">
          <mxGeometry y="590" width="320" height="40" as="geometry" />
        </mxCell>
        <mxCell id="At78oSrsm9q2pV1PJg2M-68" value="(O) Stored Procedures" style="connectable=0;recursiveResize=0;whiteSpace=wrap;html=1;" parent="At78oSrsm9q2pV1PJg2M-67" vertex="1">
          <mxGeometry width="106" height="40" as="geometry">
            <mxRectangle width="106" height="40" as="alternateBounds" />
          </mxGeometry>
        </mxCell>
        <mxCell id="At78oSrsm9q2pV1PJg2M-69" value="1 Día" style="connectable=0;recursiveResize=0;whiteSpace=wrap;html=1;" parent="At78oSrsm9q2pV1PJg2M-67" vertex="1">
          <mxGeometry x="106" width="108" height="40" as="geometry">
            <mxRectangle width="108" height="40" as="alternateBounds" />
          </mxGeometry>
        </mxCell>
        <mxCell id="At78oSrsm9q2pV1PJg2M-70" value="J" style="connectable=0;recursiveResize=0;whiteSpace=wrap;html=1;" parent="At78oSrsm9q2pV1PJg2M-67" vertex="1">
          <mxGeometry x="214" width="106" height="40" as="geometry">
            <mxRectangle width="106" height="40" as="alternateBounds" />
          </mxGeometry>
        </mxCell>
        <mxCell id="At78oSrsm9q2pV1PJg2M-71" style="shape=tableRow;horizontal=0;startSize=0;swimlaneHead=0;swimlaneBody=0;top=0;left=0;bottom=0;right=0;dropTarget=0;collapsible=0;recursiveResize=0;expand=0;fontStyle=1;" parent="At78oSrsm9q2pV1PJg2M-2" vertex="1">
          <mxGeometry y="630" width="320" height="40" as="geometry" />
        </mxCell>
        <mxCell id="At78oSrsm9q2pV1PJg2M-72" value="(P) Pagina - Beta" style="connectable=0;recursiveResize=0;whiteSpace=wrap;html=1;" parent="At78oSrsm9q2pV1PJg2M-71" vertex="1">
          <mxGeometry width="106" height="40" as="geometry">
            <mxRectangle width="106" height="40" as="alternateBounds" />
          </mxGeometry>
        </mxCell>
        <mxCell id="At78oSrsm9q2pV1PJg2M-73" value="3 Días" style="connectable=0;recursiveResize=0;whiteSpace=wrap;html=1;" parent="At78oSrsm9q2pV1PJg2M-71" vertex="1">
          <mxGeometry x="106" width="108" height="40" as="geometry">
            <mxRectangle width="108" height="40" as="alternateBounds" />
          </mxGeometry>
        </mxCell>
        <mxCell id="At78oSrsm9q2pV1PJg2M-74" value="O" style="connectable=0;recursiveResize=0;whiteSpace=wrap;html=1;" parent="At78oSrsm9q2pV1PJg2M-71" vertex="1">
          <mxGeometry x="214" width="106" height="40" as="geometry">
            <mxRectangle width="106" height="40" as="alternateBounds" />
          </mxGeometry>
        </mxCell>
        <mxCell id="At78oSrsm9q2pV1PJg2M-75" style="shape=tableRow;horizontal=0;startSize=0;swimlaneHead=0;swimlaneBody=0;top=0;left=0;bottom=0;right=0;dropTarget=0;collapsible=0;recursiveResize=0;expand=0;fontStyle=1;" parent="At78oSrsm9q2pV1PJg2M-2" vertex="1">
          <mxGeometry y="670" width="320" height="40" as="geometry" />
        </mxCell>
        <mxCell id="At78oSrsm9q2pV1PJg2M-76" value="(Q) Testing" style="connectable=0;recursiveResize=0;whiteSpace=wrap;html=1;" parent="At78oSrsm9q2pV1PJg2M-75" vertex="1">
          <mxGeometry width="106" height="40" as="geometry">
            <mxRectangle width="106" height="40" as="alternateBounds" />
          </mxGeometry>
        </mxCell>
        <mxCell id="At78oSrsm9q2pV1PJg2M-77" value="2 Días" style="connectable=0;recursiveResize=0;whiteSpace=wrap;html=1;" parent="At78oSrsm9q2pV1PJg2M-75" vertex="1">
          <mxGeometry x="106" width="108" height="40" as="geometry">
            <mxRectangle width="108" height="40" as="alternateBounds" />
          </mxGeometry>
        </mxCell>
        <mxCell id="At78oSrsm9q2pV1PJg2M-78" value="P" style="connectable=0;recursiveResize=0;whiteSpace=wrap;html=1;" parent="At78oSrsm9q2pV1PJg2M-75" vertex="1">
          <mxGeometry x="214" width="106" height="40" as="geometry">
            <mxRectangle width="106" height="40" as="alternateBounds" />
          </mxGeometry>
        </mxCell>
        <mxCell id="At78oSrsm9q2pV1PJg2M-79" style="shape=tableRow;horizontal=0;startSize=0;swimlaneHead=0;swimlaneBody=0;top=0;left=0;bottom=0;right=0;dropTarget=0;collapsible=0;recursiveResize=0;expand=0;fontStyle=1;" parent="At78oSrsm9q2pV1PJg2M-2" vertex="1">
          <mxGeometry y="710" width="320" height="40" as="geometry" />
        </mxCell>
        <mxCell id="At78oSrsm9q2pV1PJg2M-80" value="(R) Testing Unit - PHP" style="connectable=0;recursiveResize=0;whiteSpace=wrap;html=1;" parent="At78oSrsm9q2pV1PJg2M-79" vertex="1">
          <mxGeometry width="106" height="40" as="geometry">
            <mxRectangle width="106" height="40" as="alternateBounds" />
          </mxGeometry>
        </mxCell>
        <mxCell id="At78oSrsm9q2pV1PJg2M-81" value="2 Días" style="connectable=0;recursiveResize=0;whiteSpace=wrap;html=1;" parent="At78oSrsm9q2pV1PJg2M-79" vertex="1">
          <mxGeometry x="106" width="108" height="40" as="geometry">
            <mxRectangle width="108" height="40" as="alternateBounds" />
          </mxGeometry>
        </mxCell>
        <mxCell id="At78oSrsm9q2pV1PJg2M-82" value="Q" style="connectable=0;recursiveResize=0;whiteSpace=wrap;html=1;" parent="At78oSrsm9q2pV1PJg2M-79" vertex="1">
          <mxGeometry x="214" width="106" height="40" as="geometry">
            <mxRectangle width="106" height="40" as="alternateBounds" />
          </mxGeometry>
        </mxCell>
        <mxCell id="At78oSrsm9q2pV1PJg2M-83" value="A" style="ellipse;whiteSpace=wrap;html=1;aspect=fixed;" parent="1" vertex="1">
          <mxGeometry x="546.5" y="630" width="80" height="80" as="geometry" />
        </mxCell>
        <mxCell id="At78oSrsm9q2pV1PJg2M-84" value="B" style="ellipse;whiteSpace=wrap;html=1;aspect=fixed;" parent="1" vertex="1">
          <mxGeometry x="706.5" y="630" width="80" height="80" as="geometry" />
        </mxCell>
        <mxCell id="At78oSrsm9q2pV1PJg2M-86" value="" style="endArrow=classic;html=1;rounded=0;exitX=1;exitY=0.5;exitDx=0;exitDy=0;entryX=0;entryY=0.5;entryDx=0;entryDy=0;" parent="1" source="At78oSrsm9q2pV1PJg2M-83" target="At78oSrsm9q2pV1PJg2M-84" edge="1">
          <mxGeometry width="50" height="50" relative="1" as="geometry">
            <mxPoint x="706.5" y="570" as="sourcePoint" />
            <mxPoint x="756.5" y="520" as="targetPoint" />
          </mxGeometry>
        </mxCell>
        <mxCell id="At78oSrsm9q2pV1PJg2M-168" value="C" style="ellipse;whiteSpace=wrap;html=1;aspect=fixed;" parent="1" vertex="1">
          <mxGeometry x="866.5" y="630" width="80" height="80" as="geometry" />
        </mxCell>
        <mxCell id="At78oSrsm9q2pV1PJg2M-169" value="D" style="ellipse;whiteSpace=wrap;html=1;aspect=fixed;" parent="1" vertex="1">
          <mxGeometry x="1030" y="630" width="80" height="80" as="geometry" />
        </mxCell>
        <mxCell id="At78oSrsm9q2pV1PJg2M-172" value="E" style="ellipse;whiteSpace=wrap;html=1;aspect=fixed;" parent="1" vertex="1">
          <mxGeometry x="1170" y="740" width="80" height="80" as="geometry" />
        </mxCell>
        <mxCell id="At78oSrsm9q2pV1PJg2M-175" value="F" style="ellipse;whiteSpace=wrap;html=1;aspect=fixed;" parent="1" vertex="1">
          <mxGeometry x="1170" y="530" width="80" height="80" as="geometry" />
        </mxCell>
        <mxCell id="At78oSrsm9q2pV1PJg2M-177" value="Inicio" style="ellipse;whiteSpace=wrap;html=1;aspect=fixed;" parent="1" vertex="1">
          <mxGeometry x="390" y="630" width="80" height="80" as="geometry" />
        </mxCell>
        <mxCell id="At78oSrsm9q2pV1PJg2M-178" value="" style="endArrow=classic;html=1;rounded=0;exitX=1;exitY=0.5;exitDx=0;exitDy=0;entryX=0;entryY=0.5;entryDx=0;entryDy=0;" parent="1" source="At78oSrsm9q2pV1PJg2M-177" target="At78oSrsm9q2pV1PJg2M-83" edge="1">
          <mxGeometry width="50" height="50" relative="1" as="geometry">
            <mxPoint x="416.5" y="680" as="sourcePoint" />
            <mxPoint x="466.5" y="630" as="targetPoint" />
          </mxGeometry>
        </mxCell>
        <mxCell id="At78oSrsm9q2pV1PJg2M-179" value="" style="endArrow=classic;html=1;rounded=0;exitX=1;exitY=0.5;exitDx=0;exitDy=0;entryX=0;entryY=0.5;entryDx=0;entryDy=0;" parent="1" source="At78oSrsm9q2pV1PJg2M-84" target="At78oSrsm9q2pV1PJg2M-168" edge="1">
          <mxGeometry width="50" height="50" relative="1" as="geometry">
            <mxPoint x="596.5" y="680" as="sourcePoint" />
            <mxPoint x="646.5" y="630" as="targetPoint" />
          </mxGeometry>
        </mxCell>
        <mxCell id="At78oSrsm9q2pV1PJg2M-180" value="" style="endArrow=classic;html=1;rounded=0;exitX=1;exitY=0.5;exitDx=0;exitDy=0;entryX=0;entryY=0.5;entryDx=0;entryDy=0;" parent="1" source="At78oSrsm9q2pV1PJg2M-168" target="At78oSrsm9q2pV1PJg2M-169" edge="1">
          <mxGeometry width="50" height="50" relative="1" as="geometry">
            <mxPoint x="780" y="680" as="sourcePoint" />
            <mxPoint x="830" y="630" as="targetPoint" />
          </mxGeometry>
        </mxCell>
        <mxCell id="At78oSrsm9q2pV1PJg2M-181" value="" style="endArrow=classic;html=1;rounded=0;entryX=0;entryY=0.5;entryDx=0;entryDy=0;exitX=1;exitY=0;exitDx=0;exitDy=0;" parent="1" source="At78oSrsm9q2pV1PJg2M-169" target="At78oSrsm9q2pV1PJg2M-175" edge="1">
          <mxGeometry width="50" height="50" relative="1" as="geometry">
            <mxPoint x="930" y="680" as="sourcePoint" />
            <mxPoint x="980" y="630" as="targetPoint" />
          </mxGeometry>
        </mxCell>
        <mxCell id="At78oSrsm9q2pV1PJg2M-182" value="" style="endArrow=classic;html=1;rounded=0;exitX=1;exitY=1;exitDx=0;exitDy=0;entryX=0;entryY=0.5;entryDx=0;entryDy=0;" parent="1" source="At78oSrsm9q2pV1PJg2M-169" target="At78oSrsm9q2pV1PJg2M-172" edge="1">
          <mxGeometry width="50" height="50" relative="1" as="geometry">
            <mxPoint x="930" y="680" as="sourcePoint" />
            <mxPoint x="980" y="630" as="targetPoint" />
          </mxGeometry>
        </mxCell>
        <mxCell id="At78oSrsm9q2pV1PJg2M-187" style="edgeStyle=orthogonalEdgeStyle;rounded=0;orthogonalLoop=1;jettySize=auto;html=1;entryX=0;entryY=0.5;entryDx=0;entryDy=0;" parent="1" source="At78oSrsm9q2pV1PJg2M-183" target="At78oSrsm9q2pV1PJg2M-186" edge="1">
          <mxGeometry relative="1" as="geometry" />
        </mxCell>
        <mxCell id="At78oSrsm9q2pV1PJg2M-183" value="G" style="ellipse;whiteSpace=wrap;html=1;aspect=fixed;fillColor=#fff2cc;strokeColor=#d6b656;" parent="1" vertex="1">
          <mxGeometry x="1310" y="630" width="80" height="80" as="geometry" />
        </mxCell>
        <mxCell id="At78oSrsm9q2pV1PJg2M-184" value="" style="endArrow=classic;html=1;rounded=0;exitX=1;exitY=0.5;exitDx=0;exitDy=0;entryX=0;entryY=0;entryDx=0;entryDy=0;" parent="1" source="At78oSrsm9q2pV1PJg2M-175" target="At78oSrsm9q2pV1PJg2M-183" edge="1">
          <mxGeometry width="50" height="50" relative="1" as="geometry">
            <mxPoint x="1160" y="780" as="sourcePoint" />
            <mxPoint x="1210" y="730" as="targetPoint" />
          </mxGeometry>
        </mxCell>
        <mxCell id="At78oSrsm9q2pV1PJg2M-185" value="" style="endArrow=classic;html=1;rounded=0;exitX=1;exitY=0.5;exitDx=0;exitDy=0;entryX=0;entryY=1;entryDx=0;entryDy=0;" parent="1" source="At78oSrsm9q2pV1PJg2M-172" target="At78oSrsm9q2pV1PJg2M-183" edge="1">
          <mxGeometry width="50" height="50" relative="1" as="geometry">
            <mxPoint x="1160" y="780" as="sourcePoint" />
            <mxPoint x="1210" y="730" as="targetPoint" />
          </mxGeometry>
        </mxCell>
        <mxCell id="At78oSrsm9q2pV1PJg2M-186" value="H" style="ellipse;whiteSpace=wrap;html=1;aspect=fixed;fillColor=#fff2cc;strokeColor=#d6b656;" parent="1" vertex="1">
          <mxGeometry x="1470" y="630" width="80" height="80" as="geometry" />
        </mxCell>
        <mxCell id="At78oSrsm9q2pV1PJg2M-192" style="edgeStyle=orthogonalEdgeStyle;rounded=0;orthogonalLoop=1;jettySize=auto;html=1;exitX=1;exitY=0.5;exitDx=0;exitDy=0;entryX=0;entryY=0.5;entryDx=0;entryDy=0;" parent="1" source="At78oSrsm9q2pV1PJg2M-188" target="At78oSrsm9q2pV1PJg2M-191" edge="1">
          <mxGeometry relative="1" as="geometry" />
        </mxCell>
        <mxCell id="At78oSrsm9q2pV1PJg2M-188" value="I" style="ellipse;whiteSpace=wrap;html=1;aspect=fixed;fillColor=#fff2cc;strokeColor=#d6b656;" parent="1" vertex="1">
          <mxGeometry x="1480" y="390" width="80" height="80" as="geometry" />
        </mxCell>
        <mxCell id="At78oSrsm9q2pV1PJg2M-189" value="" style="endArrow=classic;html=1;rounded=0;entryX=0;entryY=0.5;entryDx=0;entryDy=0;exitX=1;exitY=0;exitDx=0;exitDy=0;" parent="1" source="At78oSrsm9q2pV1PJg2M-175" target="At78oSrsm9q2pV1PJg2M-188" edge="1">
          <mxGeometry width="50" height="50" relative="1" as="geometry">
            <mxPoint x="1410" y="610" as="sourcePoint" />
            <mxPoint x="1460" y="560" as="targetPoint" />
          </mxGeometry>
        </mxCell>
        <mxCell id="At78oSrsm9q2pV1PJg2M-190" value="" style="endArrow=classic;html=1;rounded=0;exitX=1;exitY=0;exitDx=0;exitDy=0;entryX=0.5;entryY=1;entryDx=0;entryDy=0;" parent="1" source="At78oSrsm9q2pV1PJg2M-186" target="At78oSrsm9q2pV1PJg2M-188" edge="1">
          <mxGeometry width="50" height="50" relative="1" as="geometry">
            <mxPoint x="1410" y="610" as="sourcePoint" />
            <mxPoint x="1460" y="560" as="targetPoint" />
          </mxGeometry>
        </mxCell>
        <mxCell id="rKBE9lLJu66GJcNyoKMq-1" style="edgeStyle=orthogonalEdgeStyle;rounded=0;orthogonalLoop=1;jettySize=auto;html=1;exitX=1;exitY=0.5;exitDx=0;exitDy=0;entryX=0;entryY=0.5;entryDx=0;entryDy=0;" edge="1" parent="1" source="At78oSrsm9q2pV1PJg2M-191" target="At78oSrsm9q2pV1PJg2M-195">
          <mxGeometry relative="1" as="geometry" />
        </mxCell>
        <mxCell id="At78oSrsm9q2pV1PJg2M-191" value="J" style="ellipse;whiteSpace=wrap;html=1;aspect=fixed;fillColor=#fff2cc;strokeColor=#d6b656;" parent="1" vertex="1">
          <mxGeometry x="1670" y="390" width="80" height="80" as="geometry" />
        </mxCell>
        <mxCell id="rKBE9lLJu66GJcNyoKMq-4" style="edgeStyle=orthogonalEdgeStyle;rounded=0;orthogonalLoop=1;jettySize=auto;html=1;exitX=1;exitY=0.5;exitDx=0;exitDy=0;entryX=0;entryY=0.5;entryDx=0;entryDy=0;" edge="1" parent="1" source="At78oSrsm9q2pV1PJg2M-193" target="At78oSrsm9q2pV1PJg2M-196">
          <mxGeometry relative="1" as="geometry" />
        </mxCell>
        <mxCell id="At78oSrsm9q2pV1PJg2M-193" value="M" style="ellipse;whiteSpace=wrap;html=1;aspect=fixed;fillColor=#fff2cc;strokeColor=#d6b656;" parent="1" vertex="1">
          <mxGeometry x="2200" y="390" width="80" height="80" as="geometry" />
        </mxCell>
        <mxCell id="rKBE9lLJu66GJcNyoKMq-3" style="edgeStyle=orthogonalEdgeStyle;rounded=0;orthogonalLoop=1;jettySize=auto;html=1;exitX=1;exitY=0.5;exitDx=0;exitDy=0;entryX=0;entryY=0.5;entryDx=0;entryDy=0;" edge="1" parent="1" source="At78oSrsm9q2pV1PJg2M-194" target="At78oSrsm9q2pV1PJg2M-193">
          <mxGeometry relative="1" as="geometry" />
        </mxCell>
        <mxCell id="At78oSrsm9q2pV1PJg2M-194" value="L" style="ellipse;whiteSpace=wrap;html=1;aspect=fixed;fillColor=#fff2cc;strokeColor=#d6b656;" parent="1" vertex="1">
          <mxGeometry x="2030" y="390" width="80" height="80" as="geometry" />
        </mxCell>
        <mxCell id="rKBE9lLJu66GJcNyoKMq-2" style="edgeStyle=orthogonalEdgeStyle;rounded=0;orthogonalLoop=1;jettySize=auto;html=1;exitX=1;exitY=0.5;exitDx=0;exitDy=0;entryX=0;entryY=0.5;entryDx=0;entryDy=0;" edge="1" parent="1" source="At78oSrsm9q2pV1PJg2M-195" target="At78oSrsm9q2pV1PJg2M-194">
          <mxGeometry relative="1" as="geometry" />
        </mxCell>
        <mxCell id="At78oSrsm9q2pV1PJg2M-195" value="K" style="ellipse;whiteSpace=wrap;html=1;aspect=fixed;fillColor=#fff2cc;strokeColor=#d6b656;" parent="1" vertex="1">
          <mxGeometry x="1850" y="390" width="80" height="80" as="geometry" />
        </mxCell>
        <mxCell id="rKBE9lLJu66GJcNyoKMq-5" style="edgeStyle=orthogonalEdgeStyle;rounded=0;orthogonalLoop=1;jettySize=auto;html=1;exitX=1;exitY=0.5;exitDx=0;exitDy=0;entryX=0;entryY=0.5;entryDx=0;entryDy=0;" edge="1" parent="1" source="At78oSrsm9q2pV1PJg2M-196" target="At78oSrsm9q2pV1PJg2M-197">
          <mxGeometry relative="1" as="geometry" />
        </mxCell>
        <mxCell id="At78oSrsm9q2pV1PJg2M-196" value="N" style="ellipse;whiteSpace=wrap;html=1;aspect=fixed;fillColor=#fff2cc;strokeColor=#d6b656;" parent="1" vertex="1">
          <mxGeometry x="2380" y="390" width="80" height="80" as="geometry" />
        </mxCell>
        <mxCell id="rKBE9lLJu66GJcNyoKMq-6" style="edgeStyle=orthogonalEdgeStyle;rounded=0;orthogonalLoop=1;jettySize=auto;html=1;exitX=1;exitY=0.5;exitDx=0;exitDy=0;entryX=0;entryY=0.5;entryDx=0;entryDy=0;" edge="1" parent="1" source="At78oSrsm9q2pV1PJg2M-197" target="At78oSrsm9q2pV1PJg2M-198">
          <mxGeometry relative="1" as="geometry" />
        </mxCell>
        <mxCell id="At78oSrsm9q2pV1PJg2M-197" value="Ñ" style="ellipse;whiteSpace=wrap;html=1;aspect=fixed;fillColor=#fff2cc;strokeColor=#d6b656;" parent="1" vertex="1">
          <mxGeometry x="2560" y="390" width="80" height="80" as="geometry" />
        </mxCell>
        <mxCell id="At78oSrsm9q2pV1PJg2M-207" style="edgeStyle=orthogonalEdgeStyle;rounded=0;orthogonalLoop=1;jettySize=auto;html=1;exitX=1;exitY=0.5;exitDx=0;exitDy=0;entryX=0;entryY=0.5;entryDx=0;entryDy=0;" parent="1" source="At78oSrsm9q2pV1PJg2M-198" target="At78oSrsm9q2pV1PJg2M-205" edge="1">
          <mxGeometry relative="1" as="geometry" />
        </mxCell>
        <mxCell id="At78oSrsm9q2pV1PJg2M-198" value="O" style="ellipse;whiteSpace=wrap;html=1;aspect=fixed;fillColor=#fff2cc;strokeColor=#d6b656;" parent="1" vertex="1">
          <mxGeometry x="2730" y="390" width="80" height="80" as="geometry" />
        </mxCell>
        <mxCell id="At78oSrsm9q2pV1PJg2M-209" style="edgeStyle=orthogonalEdgeStyle;rounded=0;orthogonalLoop=1;jettySize=auto;html=1;exitX=1;exitY=0.5;exitDx=0;exitDy=0;entryX=0;entryY=0.5;entryDx=0;entryDy=0;" parent="1" source="At78oSrsm9q2pV1PJg2M-205" target="At78oSrsm9q2pV1PJg2M-208" edge="1">
          <mxGeometry relative="1" as="geometry" />
        </mxCell>
        <mxCell id="At78oSrsm9q2pV1PJg2M-205" value="P" style="ellipse;whiteSpace=wrap;html=1;aspect=fixed;fillColor=#fff2cc;strokeColor=#d6b656;" parent="1" vertex="1">
          <mxGeometry x="2910" y="390" width="80" height="80" as="geometry" />
        </mxCell>
        <mxCell id="At78oSrsm9q2pV1PJg2M-211" style="edgeStyle=orthogonalEdgeStyle;rounded=0;orthogonalLoop=1;jettySize=auto;html=1;exitX=1;exitY=0.5;exitDx=0;exitDy=0;entryX=0;entryY=0.5;entryDx=0;entryDy=0;" parent="1" source="At78oSrsm9q2pV1PJg2M-208" target="At78oSrsm9q2pV1PJg2M-210" edge="1">
          <mxGeometry relative="1" as="geometry" />
        </mxCell>
        <mxCell id="At78oSrsm9q2pV1PJg2M-208" value="Q" style="ellipse;whiteSpace=wrap;html=1;aspect=fixed;fillColor=#fff2cc;strokeColor=#d6b656;" parent="1" vertex="1">
          <mxGeometry x="3100" y="390" width="80" height="80" as="geometry" />
        </mxCell>
        <mxCell id="At78oSrsm9q2pV1PJg2M-213" style="edgeStyle=orthogonalEdgeStyle;rounded=0;orthogonalLoop=1;jettySize=auto;html=1;exitX=1;exitY=0.5;exitDx=0;exitDy=0;entryX=0;entryY=0.5;entryDx=0;entryDy=0;" parent="1" source="At78oSrsm9q2pV1PJg2M-210" target="At78oSrsm9q2pV1PJg2M-212" edge="1">
          <mxGeometry relative="1" as="geometry" />
        </mxCell>
        <mxCell id="At78oSrsm9q2pV1PJg2M-210" value="R" style="ellipse;whiteSpace=wrap;html=1;aspect=fixed;fillColor=#fff2cc;strokeColor=#d6b656;" parent="1" vertex="1">
          <mxGeometry x="3290" y="390" width="80" height="80" as="geometry" />
        </mxCell>
        <mxCell id="At78oSrsm9q2pV1PJg2M-212" value="Fin" style="ellipse;whiteSpace=wrap;html=1;aspect=fixed;" parent="1" vertex="1">
          <mxGeometry x="3480" y="390" width="80" height="80" as="geometry" />
        </mxCell>
        <mxCell id="At78oSrsm9q2pV1PJg2M-215" value="" style="endArrow=none;html=1;rounded=0;" parent="1" edge="1">
          <mxGeometry width="50" height="50" relative="1" as="geometry">
            <mxPoint x="430" y="600" as="sourcePoint" />
            <mxPoint x="430" y="520" as="targetPoint" />
          </mxGeometry>
        </mxCell>
        <mxCell id="At78oSrsm9q2pV1PJg2M-216" value="" style="endArrow=none;html=1;rounded=0;" parent="1" edge="1">
          <mxGeometry width="50" height="50" relative="1" as="geometry">
            <mxPoint x="390" y="560" as="sourcePoint" />
            <mxPoint x="470" y="560" as="targetPoint" />
          </mxGeometry>
        </mxCell>
        <mxCell id="At78oSrsm9q2pV1PJg2M-217" value="0" style="text;html=1;align=center;verticalAlign=middle;resizable=0;points=[];autosize=1;strokeColor=none;fillColor=none;" parent="1" vertex="1">
          <mxGeometry x="430" y="530" width="30" height="30" as="geometry" />
        </mxCell>
        <mxCell id="At78oSrsm9q2pV1PJg2M-218" value="0" style="text;html=1;align=center;verticalAlign=middle;resizable=0;points=[];autosize=1;strokeColor=none;fillColor=none;" parent="1" vertex="1">
          <mxGeometry x="400" y="530" width="30" height="30" as="geometry" />
        </mxCell>
        <mxCell id="At78oSrsm9q2pV1PJg2M-219" value="0" style="text;html=1;align=center;verticalAlign=middle;resizable=0;points=[];autosize=1;strokeColor=none;fillColor=none;" parent="1" vertex="1">
          <mxGeometry x="400" y="560" width="30" height="30" as="geometry" />
        </mxCell>
        <mxCell id="At78oSrsm9q2pV1PJg2M-220" value="0" style="text;html=1;align=center;verticalAlign=middle;resizable=0;points=[];autosize=1;strokeColor=none;fillColor=none;" parent="1" vertex="1">
          <mxGeometry x="430" y="560" width="30" height="30" as="geometry" />
        </mxCell>
        <mxCell id="At78oSrsm9q2pV1PJg2M-221" value="" style="endArrow=none;html=1;rounded=0;" parent="1" edge="1">
          <mxGeometry width="50" height="50" relative="1" as="geometry">
            <mxPoint x="586.5" y="595" as="sourcePoint" />
            <mxPoint x="586.5" y="515" as="targetPoint" />
          </mxGeometry>
        </mxCell>
        <mxCell id="At78oSrsm9q2pV1PJg2M-222" value="" style="endArrow=none;html=1;rounded=0;" parent="1" edge="1">
          <mxGeometry width="50" height="50" relative="1" as="geometry">
            <mxPoint x="546.5" y="555" as="sourcePoint" />
            <mxPoint x="626.5" y="555" as="targetPoint" />
          </mxGeometry>
        </mxCell>
        <mxCell id="At78oSrsm9q2pV1PJg2M-223" value="2" style="text;html=1;align=center;verticalAlign=middle;resizable=0;points=[];autosize=1;strokeColor=none;fillColor=none;" parent="1" vertex="1">
          <mxGeometry x="586.5" y="525" width="30" height="30" as="geometry" />
        </mxCell>
        <mxCell id="At78oSrsm9q2pV1PJg2M-224" value="0" style="text;html=1;align=center;verticalAlign=middle;resizable=0;points=[];autosize=1;strokeColor=none;fillColor=none;" parent="1" vertex="1">
          <mxGeometry x="556.5" y="525" width="30" height="30" as="geometry" />
        </mxCell>
        <mxCell id="At78oSrsm9q2pV1PJg2M-225" value="3" style="text;html=1;align=center;verticalAlign=middle;resizable=0;points=[];autosize=1;strokeColor=none;fillColor=none;" parent="1" vertex="1">
          <mxGeometry x="556.5" y="555" width="30" height="30" as="geometry" />
        </mxCell>
        <mxCell id="At78oSrsm9q2pV1PJg2M-226" value="5" style="text;html=1;align=center;verticalAlign=middle;resizable=0;points=[];autosize=1;strokeColor=none;fillColor=none;" parent="1" vertex="1">
          <mxGeometry x="586.5" y="555" width="30" height="30" as="geometry" />
        </mxCell>
        <mxCell id="At78oSrsm9q2pV1PJg2M-227" value="" style="endArrow=none;html=1;rounded=0;" parent="1" edge="1">
          <mxGeometry width="50" height="50" relative="1" as="geometry">
            <mxPoint x="746.5" y="590" as="sourcePoint" />
            <mxPoint x="746.5" y="510" as="targetPoint" />
          </mxGeometry>
        </mxCell>
        <mxCell id="At78oSrsm9q2pV1PJg2M-228" value="" style="endArrow=none;html=1;rounded=0;" parent="1" edge="1">
          <mxGeometry width="50" height="50" relative="1" as="geometry">
            <mxPoint x="706.5" y="550" as="sourcePoint" />
            <mxPoint x="786.5" y="550" as="targetPoint" />
          </mxGeometry>
        </mxCell>
        <mxCell id="At78oSrsm9q2pV1PJg2M-229" value="3" style="text;html=1;align=center;verticalAlign=middle;resizable=0;points=[];autosize=1;strokeColor=none;fillColor=none;" parent="1" vertex="1">
          <mxGeometry x="746.5" y="520" width="30" height="30" as="geometry" />
        </mxCell>
        <mxCell id="At78oSrsm9q2pV1PJg2M-230" value="2" style="text;html=1;align=center;verticalAlign=middle;resizable=0;points=[];autosize=1;strokeColor=none;fillColor=none;" parent="1" vertex="1">
          <mxGeometry x="716.5" y="520" width="30" height="30" as="geometry" />
        </mxCell>
        <mxCell id="At78oSrsm9q2pV1PJg2M-231" value="5" style="text;html=1;align=center;verticalAlign=middle;resizable=0;points=[];autosize=1;strokeColor=none;fillColor=none;" parent="1" vertex="1">
          <mxGeometry x="716.5" y="550" width="30" height="30" as="geometry" />
        </mxCell>
        <mxCell id="At78oSrsm9q2pV1PJg2M-232" value="6" style="text;html=1;align=center;verticalAlign=middle;resizable=0;points=[];autosize=1;strokeColor=none;fillColor=none;" parent="1" vertex="1">
          <mxGeometry x="746.5" y="550" width="30" height="30" as="geometry" />
        </mxCell>
        <mxCell id="At78oSrsm9q2pV1PJg2M-233" value="" style="endArrow=none;html=1;rounded=0;" parent="1" edge="1">
          <mxGeometry width="50" height="50" relative="1" as="geometry">
            <mxPoint x="906.5" y="590" as="sourcePoint" />
            <mxPoint x="906.5" y="510" as="targetPoint" />
          </mxGeometry>
        </mxCell>
        <mxCell id="At78oSrsm9q2pV1PJg2M-234" value="" style="endArrow=none;html=1;rounded=0;" parent="1" edge="1">
          <mxGeometry width="50" height="50" relative="1" as="geometry">
            <mxPoint x="866.5" y="550" as="sourcePoint" />
            <mxPoint x="946.5" y="550" as="targetPoint" />
          </mxGeometry>
        </mxCell>
        <mxCell id="At78oSrsm9q2pV1PJg2M-235" value="6" style="text;html=1;align=center;verticalAlign=middle;resizable=0;points=[];autosize=1;strokeColor=none;fillColor=none;" parent="1" vertex="1">
          <mxGeometry x="906.5" y="520" width="30" height="30" as="geometry" />
        </mxCell>
        <mxCell id="At78oSrsm9q2pV1PJg2M-236" value="3" style="text;html=1;align=center;verticalAlign=middle;resizable=0;points=[];autosize=1;strokeColor=none;fillColor=none;" parent="1" vertex="1">
          <mxGeometry x="876.5" y="520" width="30" height="30" as="geometry" />
        </mxCell>
        <mxCell id="At78oSrsm9q2pV1PJg2M-237" value="6" style="text;html=1;align=center;verticalAlign=middle;resizable=0;points=[];autosize=1;strokeColor=none;fillColor=none;" parent="1" vertex="1">
          <mxGeometry x="876.5" y="550" width="30" height="30" as="geometry" />
        </mxCell>
        <mxCell id="At78oSrsm9q2pV1PJg2M-238" value="9" style="text;html=1;align=center;verticalAlign=middle;resizable=0;points=[];autosize=1;strokeColor=none;fillColor=none;" parent="1" vertex="1">
          <mxGeometry x="906.5" y="550" width="30" height="30" as="geometry" />
        </mxCell>
        <mxCell id="At78oSrsm9q2pV1PJg2M-239" value="" style="endArrow=none;html=1;rounded=0;" parent="1" edge="1">
          <mxGeometry width="50" height="50" relative="1" as="geometry">
            <mxPoint x="1070" y="590" as="sourcePoint" />
            <mxPoint x="1070" y="510" as="targetPoint" />
          </mxGeometry>
        </mxCell>
        <mxCell id="At78oSrsm9q2pV1PJg2M-240" value="" style="endArrow=none;html=1;rounded=0;" parent="1" edge="1">
          <mxGeometry width="50" height="50" relative="1" as="geometry">
            <mxPoint x="1030" y="550" as="sourcePoint" />
            <mxPoint x="1110" y="550" as="targetPoint" />
          </mxGeometry>
        </mxCell>
        <mxCell id="At78oSrsm9q2pV1PJg2M-241" value="9" style="text;html=1;align=center;verticalAlign=middle;resizable=0;points=[];autosize=1;strokeColor=none;fillColor=none;" parent="1" vertex="1">
          <mxGeometry x="1070" y="520" width="30" height="30" as="geometry" />
        </mxCell>
        <mxCell id="At78oSrsm9q2pV1PJg2M-242" value="6" style="text;html=1;align=center;verticalAlign=middle;resizable=0;points=[];autosize=1;strokeColor=none;fillColor=none;" parent="1" vertex="1">
          <mxGeometry x="1040" y="520" width="30" height="30" as="geometry" />
        </mxCell>
        <mxCell id="At78oSrsm9q2pV1PJg2M-243" value="9" style="text;html=1;align=center;verticalAlign=middle;resizable=0;points=[];autosize=1;strokeColor=none;fillColor=none;" parent="1" vertex="1">
          <mxGeometry x="1040" y="550" width="30" height="30" as="geometry" />
        </mxCell>
        <mxCell id="At78oSrsm9q2pV1PJg2M-244" value="12" style="text;html=1;align=center;verticalAlign=middle;resizable=0;points=[];autosize=1;strokeColor=none;fillColor=none;" parent="1" vertex="1">
          <mxGeometry x="1065" y="550" width="40" height="30" as="geometry" />
        </mxCell>
        <mxCell id="At78oSrsm9q2pV1PJg2M-245" value="" style="endArrow=none;html=1;rounded=0;" parent="1" edge="1">
          <mxGeometry width="50" height="50" relative="1" as="geometry">
            <mxPoint x="1210" y="470" as="sourcePoint" />
            <mxPoint x="1210" y="390" as="targetPoint" />
          </mxGeometry>
        </mxCell>
        <mxCell id="At78oSrsm9q2pV1PJg2M-246" value="" style="endArrow=none;html=1;rounded=0;" parent="1" edge="1">
          <mxGeometry width="50" height="50" relative="1" as="geometry">
            <mxPoint x="1170" y="430" as="sourcePoint" />
            <mxPoint x="1250" y="430" as="targetPoint" />
          </mxGeometry>
        </mxCell>
        <mxCell id="At78oSrsm9q2pV1PJg2M-247" value="11" style="text;html=1;align=center;verticalAlign=middle;resizable=0;points=[];autosize=1;strokeColor=none;fillColor=none;" parent="1" vertex="1">
          <mxGeometry x="1205" y="400" width="40" height="30" as="geometry" />
        </mxCell>
        <mxCell id="At78oSrsm9q2pV1PJg2M-248" value="9" style="text;html=1;align=center;verticalAlign=middle;resizable=0;points=[];autosize=1;strokeColor=none;fillColor=none;" parent="1" vertex="1">
          <mxGeometry x="1180" y="400" width="30" height="30" as="geometry" />
        </mxCell>
        <mxCell id="At78oSrsm9q2pV1PJg2M-249" value="12" style="text;html=1;align=center;verticalAlign=middle;resizable=0;points=[];autosize=1;strokeColor=none;fillColor=none;" parent="1" vertex="1">
          <mxGeometry x="1175" y="430" width="40" height="30" as="geometry" />
        </mxCell>
        <mxCell id="At78oSrsm9q2pV1PJg2M-250" value="14" style="text;html=1;align=center;verticalAlign=middle;resizable=0;points=[];autosize=1;strokeColor=none;fillColor=none;" parent="1" vertex="1">
          <mxGeometry x="1205" y="430" width="40" height="30" as="geometry" />
        </mxCell>
        <mxCell id="At78oSrsm9q2pV1PJg2M-251" value="" style="endArrow=none;html=1;rounded=0;" parent="1" edge="1">
          <mxGeometry width="50" height="50" relative="1" as="geometry">
            <mxPoint x="1210" y="940" as="sourcePoint" />
            <mxPoint x="1210" y="860" as="targetPoint" />
          </mxGeometry>
        </mxCell>
        <mxCell id="At78oSrsm9q2pV1PJg2M-252" value="" style="endArrow=none;html=1;rounded=0;" parent="1" edge="1">
          <mxGeometry width="50" height="50" relative="1" as="geometry">
            <mxPoint x="1170" y="900" as="sourcePoint" />
            <mxPoint x="1250" y="900" as="targetPoint" />
          </mxGeometry>
        </mxCell>
        <mxCell id="At78oSrsm9q2pV1PJg2M-253" value="10" style="text;html=1;align=center;verticalAlign=middle;resizable=0;points=[];autosize=1;strokeColor=none;fillColor=none;" parent="1" vertex="1">
          <mxGeometry x="1205" y="870" width="40" height="30" as="geometry" />
        </mxCell>
        <mxCell id="At78oSrsm9q2pV1PJg2M-254" value="9" style="text;html=1;align=center;verticalAlign=middle;resizable=0;points=[];autosize=1;strokeColor=none;fillColor=none;" parent="1" vertex="1">
          <mxGeometry x="1180" y="870" width="30" height="30" as="geometry" />
        </mxCell>
        <mxCell id="At78oSrsm9q2pV1PJg2M-255" value="10" style="text;html=1;align=center;verticalAlign=middle;resizable=0;points=[];autosize=1;strokeColor=none;fillColor=none;" parent="1" vertex="1">
          <mxGeometry x="1175" y="900" width="40" height="30" as="geometry" />
        </mxCell>
        <mxCell id="At78oSrsm9q2pV1PJg2M-257" value="" style="endArrow=none;html=1;rounded=0;" parent="1" edge="1">
          <mxGeometry width="50" height="50" relative="1" as="geometry">
            <mxPoint x="1350" y="850" as="sourcePoint" />
            <mxPoint x="1350" y="770" as="targetPoint" />
          </mxGeometry>
        </mxCell>
        <mxCell id="At78oSrsm9q2pV1PJg2M-258" value="" style="endArrow=none;html=1;rounded=0;" parent="1" edge="1">
          <mxGeometry width="50" height="50" relative="1" as="geometry">
            <mxPoint x="1310" y="810" as="sourcePoint" />
            <mxPoint x="1390" y="810" as="targetPoint" />
          </mxGeometry>
        </mxCell>
        <mxCell id="At78oSrsm9q2pV1PJg2M-259" value="12" style="text;html=1;align=center;verticalAlign=middle;resizable=0;points=[];autosize=1;strokeColor=none;fillColor=none;" parent="1" vertex="1">
          <mxGeometry x="1345" y="780" width="40" height="30" as="geometry" />
        </mxCell>
        <mxCell id="At78oSrsm9q2pV1PJg2M-260" value="11" style="text;html=1;align=center;verticalAlign=middle;resizable=0;points=[];autosize=1;strokeColor=none;fillColor=none;" parent="1" vertex="1">
          <mxGeometry x="1315" y="780" width="40" height="30" as="geometry" />
        </mxCell>
        <mxCell id="At78oSrsm9q2pV1PJg2M-261" value="11" style="text;html=1;align=center;verticalAlign=middle;resizable=0;points=[];autosize=1;strokeColor=none;fillColor=none;" parent="1" vertex="1">
          <mxGeometry x="1315" y="810" width="40" height="30" as="geometry" />
        </mxCell>
        <mxCell id="At78oSrsm9q2pV1PJg2M-262" value="12" style="text;html=1;align=center;verticalAlign=middle;resizable=0;points=[];autosize=1;strokeColor=none;fillColor=none;" parent="1" vertex="1">
          <mxGeometry x="1345" y="810" width="40" height="30" as="geometry" />
        </mxCell>
        <mxCell id="At78oSrsm9q2pV1PJg2M-263" value="" style="endArrow=none;html=1;rounded=0;" parent="1" edge="1">
          <mxGeometry width="50" height="50" relative="1" as="geometry">
            <mxPoint x="1510" y="850" as="sourcePoint" />
            <mxPoint x="1510" y="770" as="targetPoint" />
          </mxGeometry>
        </mxCell>
        <mxCell id="At78oSrsm9q2pV1PJg2M-264" value="" style="endArrow=none;html=1;rounded=0;" parent="1" edge="1">
          <mxGeometry width="50" height="50" relative="1" as="geometry">
            <mxPoint x="1470" y="810" as="sourcePoint" />
            <mxPoint x="1550" y="810" as="targetPoint" />
          </mxGeometry>
        </mxCell>
        <mxCell id="At78oSrsm9q2pV1PJg2M-265" value="14" style="text;html=1;align=center;verticalAlign=middle;resizable=0;points=[];autosize=1;strokeColor=none;fillColor=none;" parent="1" vertex="1">
          <mxGeometry x="1505" y="780" width="40" height="30" as="geometry" />
        </mxCell>
        <mxCell id="At78oSrsm9q2pV1PJg2M-266" value="12" style="text;html=1;align=center;verticalAlign=middle;resizable=0;points=[];autosize=1;strokeColor=none;fillColor=none;" parent="1" vertex="1">
          <mxGeometry x="1475" y="780" width="40" height="30" as="geometry" />
        </mxCell>
        <mxCell id="At78oSrsm9q2pV1PJg2M-267" value="12" style="text;html=1;align=center;verticalAlign=middle;resizable=0;points=[];autosize=1;strokeColor=none;fillColor=none;" parent="1" vertex="1">
          <mxGeometry x="1475" y="810" width="40" height="30" as="geometry" />
        </mxCell>
        <mxCell id="At78oSrsm9q2pV1PJg2M-268" value="14" style="text;html=1;align=center;verticalAlign=middle;resizable=0;points=[];autosize=1;strokeColor=none;fillColor=none;" parent="1" vertex="1">
          <mxGeometry x="1505" y="810" width="40" height="30" as="geometry" />
        </mxCell>
        <mxCell id="At78oSrsm9q2pV1PJg2M-269" value="" style="endArrow=none;html=1;rounded=0;" parent="1" edge="1">
          <mxGeometry width="50" height="50" relative="1" as="geometry">
            <mxPoint x="1520" y="320" as="sourcePoint" />
            <mxPoint x="1520" y="240" as="targetPoint" />
          </mxGeometry>
        </mxCell>
        <mxCell id="At78oSrsm9q2pV1PJg2M-270" value="" style="endArrow=none;html=1;rounded=0;" parent="1" edge="1">
          <mxGeometry width="50" height="50" relative="1" as="geometry">
            <mxPoint x="1480" y="280" as="sourcePoint" />
            <mxPoint x="1560" y="280" as="targetPoint" />
          </mxGeometry>
        </mxCell>
        <mxCell id="At78oSrsm9q2pV1PJg2M-271" value="16" style="text;html=1;align=center;verticalAlign=middle;resizable=0;points=[];autosize=1;strokeColor=none;fillColor=none;" parent="1" vertex="1">
          <mxGeometry x="1515" y="250" width="40" height="30" as="geometry" />
        </mxCell>
        <mxCell id="At78oSrsm9q2pV1PJg2M-272" value="14" style="text;html=1;align=center;verticalAlign=middle;resizable=0;points=[];autosize=1;strokeColor=none;fillColor=none;" parent="1" vertex="1">
          <mxGeometry x="1485" y="250" width="40" height="30" as="geometry" />
        </mxCell>
        <mxCell id="At78oSrsm9q2pV1PJg2M-273" value="14" style="text;html=1;align=center;verticalAlign=middle;resizable=0;points=[];autosize=1;strokeColor=none;fillColor=none;" parent="1" vertex="1">
          <mxGeometry x="1485" y="280" width="40" height="30" as="geometry" />
        </mxCell>
        <mxCell id="At78oSrsm9q2pV1PJg2M-274" value="16" style="text;html=1;align=center;verticalAlign=middle;resizable=0;points=[];autosize=1;strokeColor=none;fillColor=none;" parent="1" vertex="1">
          <mxGeometry x="1515" y="280" width="40" height="30" as="geometry" />
        </mxCell>
        <mxCell id="At78oSrsm9q2pV1PJg2M-275" value="" style="endArrow=none;html=1;rounded=0;" parent="1" edge="1">
          <mxGeometry width="50" height="50" relative="1" as="geometry">
            <mxPoint x="1889.56" y="350" as="sourcePoint" />
            <mxPoint x="1889.56" y="270" as="targetPoint" />
          </mxGeometry>
        </mxCell>
        <mxCell id="At78oSrsm9q2pV1PJg2M-276" value="" style="endArrow=none;html=1;rounded=0;" parent="1" edge="1">
          <mxGeometry width="50" height="50" relative="1" as="geometry">
            <mxPoint x="1850" y="310" as="sourcePoint" />
            <mxPoint x="1930" y="310" as="targetPoint" />
          </mxGeometry>
        </mxCell>
        <mxCell id="At78oSrsm9q2pV1PJg2M-277" value="19" style="text;html=1;align=center;verticalAlign=middle;resizable=0;points=[];autosize=1;strokeColor=none;fillColor=none;" parent="1" vertex="1">
          <mxGeometry x="1885" y="280" width="40" height="30" as="geometry" />
        </mxCell>
        <mxCell id="At78oSrsm9q2pV1PJg2M-278" value="17" style="text;html=1;align=center;verticalAlign=middle;resizable=0;points=[];autosize=1;strokeColor=none;fillColor=none;" parent="1" vertex="1">
          <mxGeometry x="1855" y="280" width="40" height="30" as="geometry" />
        </mxCell>
        <mxCell id="At78oSrsm9q2pV1PJg2M-279" value="17" style="text;html=1;align=center;verticalAlign=middle;resizable=0;points=[];autosize=1;strokeColor=none;fillColor=none;" parent="1" vertex="1">
          <mxGeometry x="1855" y="310" width="40" height="30" as="geometry" />
        </mxCell>
        <mxCell id="At78oSrsm9q2pV1PJg2M-280" value="19" style="text;html=1;align=center;verticalAlign=middle;resizable=0;points=[];autosize=1;strokeColor=none;fillColor=none;" parent="1" vertex="1">
          <mxGeometry x="1885" y="310" width="40" height="30" as="geometry" />
        </mxCell>
        <mxCell id="At78oSrsm9q2pV1PJg2M-281" value="" style="endArrow=none;html=1;rounded=0;" parent="1" edge="1">
          <mxGeometry width="50" height="50" relative="1" as="geometry">
            <mxPoint x="2070" y="350" as="sourcePoint" />
            <mxPoint x="2070" y="270" as="targetPoint" />
          </mxGeometry>
        </mxCell>
        <mxCell id="At78oSrsm9q2pV1PJg2M-282" value="" style="endArrow=none;html=1;rounded=0;" parent="1" edge="1">
          <mxGeometry width="50" height="50" relative="1" as="geometry">
            <mxPoint x="2030" y="310" as="sourcePoint" />
            <mxPoint x="2110" y="310" as="targetPoint" />
          </mxGeometry>
        </mxCell>
        <mxCell id="At78oSrsm9q2pV1PJg2M-283" value="21" style="text;html=1;align=center;verticalAlign=middle;resizable=0;points=[];autosize=1;strokeColor=none;fillColor=none;" parent="1" vertex="1">
          <mxGeometry x="2065" y="280" width="40" height="30" as="geometry" />
        </mxCell>
        <mxCell id="At78oSrsm9q2pV1PJg2M-284" value="19" style="text;html=1;align=center;verticalAlign=middle;resizable=0;points=[];autosize=1;strokeColor=none;fillColor=none;" parent="1" vertex="1">
          <mxGeometry x="2035" y="280" width="40" height="30" as="geometry" />
        </mxCell>
        <mxCell id="At78oSrsm9q2pV1PJg2M-285" value="19" style="text;html=1;align=center;verticalAlign=middle;resizable=0;points=[];autosize=1;strokeColor=none;fillColor=none;" parent="1" vertex="1">
          <mxGeometry x="2035" y="310" width="40" height="30" as="geometry" />
        </mxCell>
        <mxCell id="At78oSrsm9q2pV1PJg2M-286" value="21" style="text;html=1;align=center;verticalAlign=middle;resizable=0;points=[];autosize=1;strokeColor=none;fillColor=none;" parent="1" vertex="1">
          <mxGeometry x="2065" y="310" width="40" height="30" as="geometry" />
        </mxCell>
        <mxCell id="At78oSrsm9q2pV1PJg2M-287" value="" style="endArrow=none;html=1;rounded=0;" parent="1" edge="1">
          <mxGeometry width="50" height="50" relative="1" as="geometry">
            <mxPoint x="2240" y="350" as="sourcePoint" />
            <mxPoint x="2240" y="270" as="targetPoint" />
          </mxGeometry>
        </mxCell>
        <mxCell id="At78oSrsm9q2pV1PJg2M-288" value="" style="endArrow=none;html=1;rounded=0;" parent="1" edge="1">
          <mxGeometry width="50" height="50" relative="1" as="geometry">
            <mxPoint x="2200" y="310" as="sourcePoint" />
            <mxPoint x="2280" y="310" as="targetPoint" />
          </mxGeometry>
        </mxCell>
        <mxCell id="At78oSrsm9q2pV1PJg2M-289" value="23" style="text;html=1;align=center;verticalAlign=middle;resizable=0;points=[];autosize=1;strokeColor=none;fillColor=none;" parent="1" vertex="1">
          <mxGeometry x="2235" y="280" width="40" height="30" as="geometry" />
        </mxCell>
        <mxCell id="At78oSrsm9q2pV1PJg2M-290" value="21" style="text;html=1;align=center;verticalAlign=middle;resizable=0;points=[];autosize=1;strokeColor=none;fillColor=none;" parent="1" vertex="1">
          <mxGeometry x="2205" y="280" width="40" height="30" as="geometry" />
        </mxCell>
        <mxCell id="At78oSrsm9q2pV1PJg2M-291" value="21" style="text;html=1;align=center;verticalAlign=middle;resizable=0;points=[];autosize=1;strokeColor=none;fillColor=none;" parent="1" vertex="1">
          <mxGeometry x="2205" y="310" width="40" height="30" as="geometry" />
        </mxCell>
        <mxCell id="At78oSrsm9q2pV1PJg2M-292" value="23" style="text;html=1;align=center;verticalAlign=middle;resizable=0;points=[];autosize=1;strokeColor=none;fillColor=none;" parent="1" vertex="1">
          <mxGeometry x="2235" y="310" width="40" height="30" as="geometry" />
        </mxCell>
        <mxCell id="At78oSrsm9q2pV1PJg2M-293" value="" style="endArrow=none;html=1;rounded=0;" parent="1" edge="1">
          <mxGeometry width="50" height="50" relative="1" as="geometry">
            <mxPoint x="2420" y="350" as="sourcePoint" />
            <mxPoint x="2420" y="270" as="targetPoint" />
          </mxGeometry>
        </mxCell>
        <mxCell id="At78oSrsm9q2pV1PJg2M-294" value="" style="endArrow=none;html=1;rounded=0;" parent="1" edge="1">
          <mxGeometry width="50" height="50" relative="1" as="geometry">
            <mxPoint x="2380" y="310" as="sourcePoint" />
            <mxPoint x="2460" y="310" as="targetPoint" />
          </mxGeometry>
        </mxCell>
        <mxCell id="At78oSrsm9q2pV1PJg2M-295" value="25" style="text;html=1;align=center;verticalAlign=middle;resizable=0;points=[];autosize=1;strokeColor=none;fillColor=none;" parent="1" vertex="1">
          <mxGeometry x="2415" y="280" width="40" height="30" as="geometry" />
        </mxCell>
        <mxCell id="At78oSrsm9q2pV1PJg2M-296" value="23" style="text;html=1;align=center;verticalAlign=middle;resizable=0;points=[];autosize=1;strokeColor=none;fillColor=none;" parent="1" vertex="1">
          <mxGeometry x="2385" y="280" width="40" height="30" as="geometry" />
        </mxCell>
        <mxCell id="At78oSrsm9q2pV1PJg2M-297" value="23" style="text;html=1;align=center;verticalAlign=middle;resizable=0;points=[];autosize=1;strokeColor=none;fillColor=none;" parent="1" vertex="1">
          <mxGeometry x="2385" y="310" width="40" height="30" as="geometry" />
        </mxCell>
        <mxCell id="At78oSrsm9q2pV1PJg2M-298" value="25" style="text;html=1;align=center;verticalAlign=middle;resizable=0;points=[];autosize=1;strokeColor=none;fillColor=none;" parent="1" vertex="1">
          <mxGeometry x="2415" y="310" width="40" height="30" as="geometry" />
        </mxCell>
        <mxCell id="At78oSrsm9q2pV1PJg2M-299" value="" style="endArrow=none;html=1;rounded=0;" parent="1" edge="1">
          <mxGeometry width="50" height="50" relative="1" as="geometry">
            <mxPoint x="2600" y="355" as="sourcePoint" />
            <mxPoint x="2600" y="275" as="targetPoint" />
          </mxGeometry>
        </mxCell>
        <mxCell id="At78oSrsm9q2pV1PJg2M-300" value="" style="endArrow=none;html=1;rounded=0;" parent="1" edge="1">
          <mxGeometry width="50" height="50" relative="1" as="geometry">
            <mxPoint x="2560" y="315" as="sourcePoint" />
            <mxPoint x="2640" y="315" as="targetPoint" />
          </mxGeometry>
        </mxCell>
        <mxCell id="At78oSrsm9q2pV1PJg2M-301" value="27" style="text;html=1;align=center;verticalAlign=middle;resizable=0;points=[];autosize=1;strokeColor=none;fillColor=none;" parent="1" vertex="1">
          <mxGeometry x="2595" y="285" width="40" height="30" as="geometry" />
        </mxCell>
        <mxCell id="At78oSrsm9q2pV1PJg2M-302" value="25" style="text;html=1;align=center;verticalAlign=middle;resizable=0;points=[];autosize=1;strokeColor=none;fillColor=none;" parent="1" vertex="1">
          <mxGeometry x="2565" y="285" width="40" height="30" as="geometry" />
        </mxCell>
        <mxCell id="At78oSrsm9q2pV1PJg2M-303" value="25" style="text;html=1;align=center;verticalAlign=middle;resizable=0;points=[];autosize=1;strokeColor=none;fillColor=none;" parent="1" vertex="1">
          <mxGeometry x="2565" y="315" width="40" height="30" as="geometry" />
        </mxCell>
        <mxCell id="At78oSrsm9q2pV1PJg2M-304" value="27" style="text;html=1;align=center;verticalAlign=middle;resizable=0;points=[];autosize=1;strokeColor=none;fillColor=none;" parent="1" vertex="1">
          <mxGeometry x="2595" y="315" width="40" height="30" as="geometry" />
        </mxCell>
        <mxCell id="At78oSrsm9q2pV1PJg2M-305" value="" style="endArrow=none;html=1;rounded=0;" parent="1" edge="1">
          <mxGeometry width="50" height="50" relative="1" as="geometry">
            <mxPoint x="2770" y="355" as="sourcePoint" />
            <mxPoint x="2770" y="275" as="targetPoint" />
          </mxGeometry>
        </mxCell>
        <mxCell id="At78oSrsm9q2pV1PJg2M-306" value="" style="endArrow=none;html=1;rounded=0;" parent="1" edge="1">
          <mxGeometry width="50" height="50" relative="1" as="geometry">
            <mxPoint x="2730" y="315" as="sourcePoint" />
            <mxPoint x="2810" y="315" as="targetPoint" />
          </mxGeometry>
        </mxCell>
        <mxCell id="At78oSrsm9q2pV1PJg2M-307" value="28" style="text;html=1;align=center;verticalAlign=middle;resizable=0;points=[];autosize=1;strokeColor=none;fillColor=none;" parent="1" vertex="1">
          <mxGeometry x="2765" y="285" width="40" height="30" as="geometry" />
        </mxCell>
        <mxCell id="At78oSrsm9q2pV1PJg2M-308" value="27" style="text;html=1;align=center;verticalAlign=middle;resizable=0;points=[];autosize=1;strokeColor=none;fillColor=none;" parent="1" vertex="1">
          <mxGeometry x="2735" y="285" width="40" height="30" as="geometry" />
        </mxCell>
        <mxCell id="At78oSrsm9q2pV1PJg2M-309" value="27" style="text;html=1;align=center;verticalAlign=middle;resizable=0;points=[];autosize=1;strokeColor=none;fillColor=none;" parent="1" vertex="1">
          <mxGeometry x="2735" y="315" width="40" height="30" as="geometry" />
        </mxCell>
        <mxCell id="At78oSrsm9q2pV1PJg2M-310" value="28" style="text;html=1;align=center;verticalAlign=middle;resizable=0;points=[];autosize=1;strokeColor=none;fillColor=none;" parent="1" vertex="1">
          <mxGeometry x="2765" y="315" width="40" height="30" as="geometry" />
        </mxCell>
        <mxCell id="At78oSrsm9q2pV1PJg2M-311" value="" style="endArrow=none;html=1;rounded=0;" parent="1" edge="1">
          <mxGeometry width="50" height="50" relative="1" as="geometry">
            <mxPoint x="2947" y="350" as="sourcePoint" />
            <mxPoint x="2947" y="270" as="targetPoint" />
          </mxGeometry>
        </mxCell>
        <mxCell id="At78oSrsm9q2pV1PJg2M-312" value="" style="endArrow=none;html=1;rounded=0;" parent="1" edge="1">
          <mxGeometry width="50" height="50" relative="1" as="geometry">
            <mxPoint x="2907" y="310" as="sourcePoint" />
            <mxPoint x="2987" y="310" as="targetPoint" />
          </mxGeometry>
        </mxCell>
        <mxCell id="At78oSrsm9q2pV1PJg2M-313" value="31" style="text;html=1;align=center;verticalAlign=middle;resizable=0;points=[];autosize=1;strokeColor=none;fillColor=none;" parent="1" vertex="1">
          <mxGeometry x="2942" y="280" width="40" height="30" as="geometry" />
        </mxCell>
        <mxCell id="At78oSrsm9q2pV1PJg2M-314" value="28" style="text;html=1;align=center;verticalAlign=middle;resizable=0;points=[];autosize=1;strokeColor=none;fillColor=none;" parent="1" vertex="1">
          <mxGeometry x="2912" y="280" width="40" height="30" as="geometry" />
        </mxCell>
        <mxCell id="At78oSrsm9q2pV1PJg2M-315" value="28" style="text;html=1;align=center;verticalAlign=middle;resizable=0;points=[];autosize=1;strokeColor=none;fillColor=none;" parent="1" vertex="1">
          <mxGeometry x="2912" y="310" width="40" height="30" as="geometry" />
        </mxCell>
        <mxCell id="At78oSrsm9q2pV1PJg2M-316" value="31" style="text;html=1;align=center;verticalAlign=middle;resizable=0;points=[];autosize=1;strokeColor=none;fillColor=none;" parent="1" vertex="1">
          <mxGeometry x="2942" y="310" width="40" height="30" as="geometry" />
        </mxCell>
        <mxCell id="At78oSrsm9q2pV1PJg2M-317" value="" style="endArrow=none;html=1;rounded=0;" parent="1" edge="1">
          <mxGeometry width="50" height="50" relative="1" as="geometry">
            <mxPoint x="3140" y="350" as="sourcePoint" />
            <mxPoint x="3140" y="270" as="targetPoint" />
          </mxGeometry>
        </mxCell>
        <mxCell id="At78oSrsm9q2pV1PJg2M-318" value="" style="endArrow=none;html=1;rounded=0;" parent="1" edge="1">
          <mxGeometry width="50" height="50" relative="1" as="geometry">
            <mxPoint x="3100" y="310" as="sourcePoint" />
            <mxPoint x="3180" y="310" as="targetPoint" />
          </mxGeometry>
        </mxCell>
        <mxCell id="At78oSrsm9q2pV1PJg2M-319" value="33" style="text;html=1;align=center;verticalAlign=middle;resizable=0;points=[];autosize=1;strokeColor=none;fillColor=none;" parent="1" vertex="1">
          <mxGeometry x="3135" y="280" width="40" height="30" as="geometry" />
        </mxCell>
        <mxCell id="At78oSrsm9q2pV1PJg2M-320" value="31" style="text;html=1;align=center;verticalAlign=middle;resizable=0;points=[];autosize=1;strokeColor=none;fillColor=none;" parent="1" vertex="1">
          <mxGeometry x="3105" y="280" width="40" height="30" as="geometry" />
        </mxCell>
        <mxCell id="At78oSrsm9q2pV1PJg2M-321" value="31" style="text;html=1;align=center;verticalAlign=middle;resizable=0;points=[];autosize=1;strokeColor=none;fillColor=none;" parent="1" vertex="1">
          <mxGeometry x="3105" y="310" width="40" height="30" as="geometry" />
        </mxCell>
        <mxCell id="At78oSrsm9q2pV1PJg2M-322" value="33" style="text;html=1;align=center;verticalAlign=middle;resizable=0;points=[];autosize=1;strokeColor=none;fillColor=none;" parent="1" vertex="1">
          <mxGeometry x="3135" y="310" width="40" height="30" as="geometry" />
        </mxCell>
        <mxCell id="At78oSrsm9q2pV1PJg2M-323" value="" style="endArrow=none;html=1;rounded=0;" parent="1" edge="1">
          <mxGeometry width="50" height="50" relative="1" as="geometry">
            <mxPoint x="3330" y="350" as="sourcePoint" />
            <mxPoint x="3330" y="270" as="targetPoint" />
          </mxGeometry>
        </mxCell>
        <mxCell id="At78oSrsm9q2pV1PJg2M-324" value="" style="endArrow=none;html=1;rounded=0;" parent="1" edge="1">
          <mxGeometry width="50" height="50" relative="1" as="geometry">
            <mxPoint x="3290" y="310" as="sourcePoint" />
            <mxPoint x="3370" y="310" as="targetPoint" />
          </mxGeometry>
        </mxCell>
        <mxCell id="At78oSrsm9q2pV1PJg2M-325" value="35" style="text;html=1;align=center;verticalAlign=middle;resizable=0;points=[];autosize=1;strokeColor=none;fillColor=none;" parent="1" vertex="1">
          <mxGeometry x="3325" y="280" width="40" height="30" as="geometry" />
        </mxCell>
        <mxCell id="At78oSrsm9q2pV1PJg2M-326" value="33" style="text;html=1;align=center;verticalAlign=middle;resizable=0;points=[];autosize=1;strokeColor=none;fillColor=none;" parent="1" vertex="1">
          <mxGeometry x="3295" y="280" width="40" height="30" as="geometry" />
        </mxCell>
        <mxCell id="At78oSrsm9q2pV1PJg2M-327" value="33" style="text;html=1;align=center;verticalAlign=middle;resizable=0;points=[];autosize=1;strokeColor=none;fillColor=none;" parent="1" vertex="1">
          <mxGeometry x="3295" y="310" width="40" height="30" as="geometry" />
        </mxCell>
        <mxCell id="At78oSrsm9q2pV1PJg2M-328" value="35" style="text;html=1;align=center;verticalAlign=middle;resizable=0;points=[];autosize=1;strokeColor=none;fillColor=none;" parent="1" vertex="1">
          <mxGeometry x="3325" y="310" width="40" height="30" as="geometry" />
        </mxCell>
        <mxCell id="At78oSrsm9q2pV1PJg2M-329" value="" style="endArrow=none;html=1;rounded=0;" parent="1" edge="1">
          <mxGeometry width="50" height="50" relative="1" as="geometry">
            <mxPoint x="3520" y="355" as="sourcePoint" />
            <mxPoint x="3520" y="275" as="targetPoint" />
          </mxGeometry>
        </mxCell>
        <mxCell id="At78oSrsm9q2pV1PJg2M-330" value="" style="endArrow=none;html=1;rounded=0;" parent="1" edge="1">
          <mxGeometry width="50" height="50" relative="1" as="geometry">
            <mxPoint x="3480" y="315" as="sourcePoint" />
            <mxPoint x="3560" y="315" as="targetPoint" />
          </mxGeometry>
        </mxCell>
        <mxCell id="At78oSrsm9q2pV1PJg2M-331" value="35" style="text;html=1;align=center;verticalAlign=middle;resizable=0;points=[];autosize=1;strokeColor=none;fillColor=none;" parent="1" vertex="1">
          <mxGeometry x="3515" y="285" width="40" height="30" as="geometry" />
        </mxCell>
        <mxCell id="At78oSrsm9q2pV1PJg2M-332" value="35" style="text;html=1;align=center;verticalAlign=middle;resizable=0;points=[];autosize=1;strokeColor=none;fillColor=none;" parent="1" vertex="1">
          <mxGeometry x="3485" y="285" width="40" height="30" as="geometry" />
        </mxCell>
        <mxCell id="At78oSrsm9q2pV1PJg2M-333" value="35" style="text;html=1;align=center;verticalAlign=middle;resizable=0;points=[];autosize=1;strokeColor=none;fillColor=none;" parent="1" vertex="1">
          <mxGeometry x="3485" y="315" width="40" height="30" as="geometry" />
        </mxCell>
        <mxCell id="At78oSrsm9q2pV1PJg2M-334" value="35" style="text;html=1;align=center;verticalAlign=middle;resizable=0;points=[];autosize=1;strokeColor=none;fillColor=none;" parent="1" vertex="1">
          <mxGeometry x="3515" y="315" width="40" height="30" as="geometry" />
        </mxCell>
        <mxCell id="At78oSrsm9q2pV1PJg2M-335" value="2 Días" style="text;html=1;align=center;verticalAlign=middle;resizable=0;points=[];autosize=1;strokeColor=none;fillColor=none;" parent="1" vertex="1">
          <mxGeometry x="556.5" y="600" width="60" height="30" as="geometry" />
        </mxCell>
        <mxCell id="At78oSrsm9q2pV1PJg2M-337" value="1 Día" style="text;html=1;align=center;verticalAlign=middle;resizable=0;points=[];autosize=1;strokeColor=none;fillColor=none;" parent="1" vertex="1">
          <mxGeometry x="721.5" y="600" width="50" height="30" as="geometry" />
        </mxCell>
        <mxCell id="At78oSrsm9q2pV1PJg2M-339" value="3 Días" style="text;html=1;align=center;verticalAlign=middle;resizable=0;points=[];autosize=1;strokeColor=none;fillColor=none;" parent="1" vertex="1">
          <mxGeometry x="876.5" y="600" width="60" height="30" as="geometry" />
        </mxCell>
        <mxCell id="At78oSrsm9q2pV1PJg2M-340" value="3 Días" style="text;html=1;align=center;verticalAlign=middle;resizable=0;points=[];autosize=1;strokeColor=none;fillColor=none;" parent="1" vertex="1">
          <mxGeometry x="1040" y="600" width="60" height="30" as="geometry" />
        </mxCell>
        <mxCell id="At78oSrsm9q2pV1PJg2M-341" value="2 Días" style="text;html=1;align=center;verticalAlign=middle;resizable=0;points=[];autosize=1;strokeColor=none;fillColor=none;" parent="1" vertex="1">
          <mxGeometry x="1180" y="500" width="60" height="30" as="geometry" />
        </mxCell>
        <mxCell id="At78oSrsm9q2pV1PJg2M-342" value="1 Día" style="text;html=1;align=center;verticalAlign=middle;resizable=0;points=[];autosize=1;strokeColor=none;fillColor=none;" parent="1" vertex="1">
          <mxGeometry x="1185" y="820" width="50" height="30" as="geometry" />
        </mxCell>
        <mxCell id="At78oSrsm9q2pV1PJg2M-343" value="1 Día" style="text;html=1;align=center;verticalAlign=middle;resizable=0;points=[];autosize=1;strokeColor=none;fillColor=none;" parent="1" vertex="1">
          <mxGeometry x="1325" y="720" width="50" height="30" as="geometry" />
        </mxCell>
        <mxCell id="At78oSrsm9q2pV1PJg2M-344" value="2 Días" style="text;html=1;align=center;verticalAlign=middle;resizable=0;points=[];autosize=1;strokeColor=none;fillColor=none;" parent="1" vertex="1">
          <mxGeometry x="1480" y="720" width="60" height="30" as="geometry" />
        </mxCell>
        <mxCell id="At78oSrsm9q2pV1PJg2M-345" value="2 Días" style="text;html=1;align=center;verticalAlign=middle;resizable=0;points=[];autosize=1;strokeColor=none;fillColor=none;" parent="1" vertex="1">
          <mxGeometry x="1495" y="350" width="60" height="30" as="geometry" />
        </mxCell>
        <mxCell id="At78oSrsm9q2pV1PJg2M-346" value="1 Día" style="text;html=1;align=center;verticalAlign=middle;resizable=0;points=[];autosize=1;strokeColor=none;fillColor=none;" parent="1" vertex="1">
          <mxGeometry x="1685" y="355" width="50" height="30" as="geometry" />
        </mxCell>
        <mxCell id="At78oSrsm9q2pV1PJg2M-347" value="" style="endArrow=none;html=1;rounded=0;" parent="1" edge="1">
          <mxGeometry width="50" height="50" relative="1" as="geometry">
            <mxPoint x="1710" y="340" as="sourcePoint" />
            <mxPoint x="1710" y="260" as="targetPoint" />
          </mxGeometry>
        </mxCell>
        <mxCell id="At78oSrsm9q2pV1PJg2M-348" value="" style="endArrow=none;html=1;rounded=0;" parent="1" edge="1">
          <mxGeometry width="50" height="50" relative="1" as="geometry">
            <mxPoint x="1670" y="300" as="sourcePoint" />
            <mxPoint x="1750" y="300" as="targetPoint" />
          </mxGeometry>
        </mxCell>
        <mxCell id="At78oSrsm9q2pV1PJg2M-349" value="17" style="text;html=1;align=center;verticalAlign=middle;resizable=0;points=[];autosize=1;strokeColor=none;fillColor=none;" parent="1" vertex="1">
          <mxGeometry x="1705" y="270" width="40" height="30" as="geometry" />
        </mxCell>
        <mxCell id="At78oSrsm9q2pV1PJg2M-350" value="16" style="text;html=1;align=center;verticalAlign=middle;resizable=0;points=[];autosize=1;strokeColor=none;fillColor=none;" parent="1" vertex="1">
          <mxGeometry x="1675" y="270" width="40" height="30" as="geometry" />
        </mxCell>
        <mxCell id="At78oSrsm9q2pV1PJg2M-351" value="16" style="text;html=1;align=center;verticalAlign=middle;resizable=0;points=[];autosize=1;strokeColor=none;fillColor=none;" parent="1" vertex="1">
          <mxGeometry x="1675" y="300" width="40" height="30" as="geometry" />
        </mxCell>
        <mxCell id="At78oSrsm9q2pV1PJg2M-352" value="17" style="text;html=1;align=center;verticalAlign=middle;resizable=0;points=[];autosize=1;strokeColor=none;fillColor=none;" parent="1" vertex="1">
          <mxGeometry x="1705" y="300" width="40" height="30" as="geometry" />
        </mxCell>
        <mxCell id="At78oSrsm9q2pV1PJg2M-359" value="2 Días" style="text;html=1;align=center;verticalAlign=middle;resizable=0;points=[];autosize=1;strokeColor=none;fillColor=none;" parent="1" vertex="1">
          <mxGeometry x="1860" y="355" width="60" height="30" as="geometry" />
        </mxCell>
        <mxCell id="At78oSrsm9q2pV1PJg2M-360" value="2 Días" style="text;html=1;align=center;verticalAlign=middle;resizable=0;points=[];autosize=1;strokeColor=none;fillColor=none;" parent="1" vertex="1">
          <mxGeometry x="2040" y="355" width="60" height="30" as="geometry" />
        </mxCell>
        <mxCell id="At78oSrsm9q2pV1PJg2M-361" value="2 Días" style="text;html=1;align=center;verticalAlign=middle;resizable=0;points=[];autosize=1;strokeColor=none;fillColor=none;" parent="1" vertex="1">
          <mxGeometry x="2210" y="350" width="60" height="30" as="geometry" />
        </mxCell>
        <mxCell id="At78oSrsm9q2pV1PJg2M-362" value="2 Días" style="text;html=1;align=center;verticalAlign=middle;resizable=0;points=[];autosize=1;strokeColor=none;fillColor=none;" parent="1" vertex="1">
          <mxGeometry x="2390" y="350" width="60" height="30" as="geometry" />
        </mxCell>
        <mxCell id="At78oSrsm9q2pV1PJg2M-363" value="2 Días" style="text;html=1;align=center;verticalAlign=middle;resizable=0;points=[];autosize=1;strokeColor=none;fillColor=none;" parent="1" vertex="1">
          <mxGeometry x="2570" y="360" width="60" height="30" as="geometry" />
        </mxCell>
        <mxCell id="At78oSrsm9q2pV1PJg2M-364" value="1 Día" style="text;html=1;align=center;verticalAlign=middle;resizable=0;points=[];autosize=1;strokeColor=none;fillColor=none;" parent="1" vertex="1">
          <mxGeometry x="2745" y="350" width="50" height="30" as="geometry" />
        </mxCell>
        <mxCell id="At78oSrsm9q2pV1PJg2M-365" value="3 Días" style="text;html=1;align=center;verticalAlign=middle;resizable=0;points=[];autosize=1;strokeColor=none;fillColor=none;" parent="1" vertex="1">
          <mxGeometry x="2917" y="350" width="60" height="30" as="geometry" />
        </mxCell>
        <mxCell id="At78oSrsm9q2pV1PJg2M-366" value="2 Días" style="text;html=1;align=center;verticalAlign=middle;resizable=0;points=[];autosize=1;strokeColor=none;fillColor=none;" parent="1" vertex="1">
          <mxGeometry x="3110" y="350" width="60" height="30" as="geometry" />
        </mxCell>
        <mxCell id="At78oSrsm9q2pV1PJg2M-367" value="2 Días" style="text;html=1;align=center;verticalAlign=middle;resizable=0;points=[];autosize=1;strokeColor=none;fillColor=none;" parent="1" vertex="1">
          <mxGeometry x="3300" y="350" width="60" height="30" as="geometry" />
        </mxCell>
        <mxCell id="rKBE9lLJu66GJcNyoKMq-8" value="11" style="text;html=1;align=center;verticalAlign=middle;resizable=0;points=[];autosize=1;strokeColor=none;fillColor=none;" vertex="1" parent="1">
          <mxGeometry x="1205" y="900" width="40" height="30" as="geometry" />
        </mxCell>
        <mxCell id="rKBE9lLJu66GJcNyoKMq-9" value="&lt;font style=&quot;font-size: 10px;&quot;&gt;H = 0 = 0&lt;/font&gt;" style="text;html=1;align=center;verticalAlign=middle;resizable=0;points=[];autosize=1;strokeColor=none;fillColor=none;" vertex="1" parent="1">
          <mxGeometry x="1490" y="200" width="60" height="30" as="geometry" />
        </mxCell>
        <mxCell id="rKBE9lLJu66GJcNyoKMq-10" value="&lt;font style=&quot;font-size: 10px;&quot;&gt;H = 0 = 0&lt;/font&gt;" style="text;html=1;align=center;verticalAlign=middle;resizable=0;points=[];autosize=1;strokeColor=none;fillColor=none;" vertex="1" parent="1">
          <mxGeometry x="1680" y="220" width="60" height="30" as="geometry" />
        </mxCell>
        <mxCell id="rKBE9lLJu66GJcNyoKMq-11" value="&lt;font style=&quot;font-size: 10px;&quot;&gt;H = 0 = 0&lt;/font&gt;" style="text;html=1;align=center;verticalAlign=middle;resizable=0;points=[];autosize=1;strokeColor=none;fillColor=none;" vertex="1" parent="1">
          <mxGeometry x="1860" y="220" width="60" height="30" as="geometry" />
        </mxCell>
        <mxCell id="rKBE9lLJu66GJcNyoKMq-12" value="&lt;font style=&quot;font-size: 10px;&quot;&gt;H = 0 = 0&lt;/font&gt;" style="text;html=1;align=center;verticalAlign=middle;resizable=0;points=[];autosize=1;strokeColor=none;fillColor=none;" vertex="1" parent="1">
          <mxGeometry x="2040" y="220" width="60" height="30" as="geometry" />
        </mxCell>
        <mxCell id="rKBE9lLJu66GJcNyoKMq-13" value="&lt;font style=&quot;font-size: 10px;&quot;&gt;H = 0 = 0&lt;/font&gt;" style="text;html=1;align=center;verticalAlign=middle;resizable=0;points=[];autosize=1;strokeColor=none;fillColor=none;" vertex="1" parent="1">
          <mxGeometry x="2210" y="220" width="60" height="30" as="geometry" />
        </mxCell>
        <mxCell id="rKBE9lLJu66GJcNyoKMq-14" value="&lt;font style=&quot;font-size: 10px;&quot;&gt;H = 0 = 0&lt;/font&gt;" style="text;html=1;align=center;verticalAlign=middle;resizable=0;points=[];autosize=1;strokeColor=none;fillColor=none;" vertex="1" parent="1">
          <mxGeometry x="2390" y="220" width="60" height="30" as="geometry" />
        </mxCell>
        <mxCell id="rKBE9lLJu66GJcNyoKMq-15" value="&lt;font style=&quot;font-size: 10px;&quot;&gt;H = 0 = 0&lt;/font&gt;" style="text;html=1;align=center;verticalAlign=middle;resizable=0;points=[];autosize=1;strokeColor=none;fillColor=none;" vertex="1" parent="1">
          <mxGeometry x="2570" y="220" width="60" height="30" as="geometry" />
        </mxCell>
        <mxCell id="rKBE9lLJu66GJcNyoKMq-16" value="&lt;font style=&quot;font-size: 10px;&quot;&gt;H = 0 = 0&lt;/font&gt;" style="text;html=1;align=center;verticalAlign=middle;resizable=0;points=[];autosize=1;strokeColor=none;fillColor=none;" vertex="1" parent="1">
          <mxGeometry x="2740" y="220" width="60" height="30" as="geometry" />
        </mxCell>
        <mxCell id="rKBE9lLJu66GJcNyoKMq-17" value="&lt;font style=&quot;font-size: 10px;&quot;&gt;H = 0 = 0&lt;/font&gt;" style="text;html=1;align=center;verticalAlign=middle;resizable=0;points=[];autosize=1;strokeColor=none;fillColor=none;" vertex="1" parent="1">
          <mxGeometry x="2917" y="220" width="60" height="30" as="geometry" />
        </mxCell>
        <mxCell id="rKBE9lLJu66GJcNyoKMq-18" value="&lt;font style=&quot;font-size: 10px;&quot;&gt;H = 0 = 0&lt;/font&gt;" style="text;html=1;align=center;verticalAlign=middle;resizable=0;points=[];autosize=1;strokeColor=none;fillColor=none;" vertex="1" parent="1">
          <mxGeometry x="3110" y="220" width="60" height="30" as="geometry" />
        </mxCell>
        <mxCell id="rKBE9lLJu66GJcNyoKMq-19" value="&lt;font style=&quot;font-size: 10px;&quot;&gt;H = 0 = 0&lt;/font&gt;" style="text;html=1;align=center;verticalAlign=middle;resizable=0;points=[];autosize=1;strokeColor=none;fillColor=none;" vertex="1" parent="1">
          <mxGeometry x="3300" y="220" width="60" height="30" as="geometry" />
        </mxCell>
        <mxCell id="rKBE9lLJu66GJcNyoKMq-20" value="&lt;font style=&quot;font-size: 10px;&quot;&gt;H = 0 = 0&lt;/font&gt;" style="text;html=1;align=center;verticalAlign=middle;resizable=0;points=[];autosize=1;strokeColor=none;fillColor=none;" vertex="1" parent="1">
          <mxGeometry x="1480" y="870" width="60" height="30" as="geometry" />
        </mxCell>
        <mxCell id="rKBE9lLJu66GJcNyoKMq-21" value="&lt;font style=&quot;font-size: 10px;&quot;&gt;H = 0 = 0&lt;/font&gt;" style="text;html=1;align=center;verticalAlign=middle;resizable=0;points=[];autosize=1;strokeColor=none;fillColor=none;" vertex="1" parent="1">
          <mxGeometry x="1320" y="870" width="60" height="30" as="geometry" />
        </mxCell>
        <mxCell id="rKBE9lLJu66GJcNyoKMq-22" value="&lt;font style=&quot;font-size: 10px;&quot;&gt;H = 1 = 1&lt;/font&gt;" style="text;html=1;align=center;verticalAlign=middle;resizable=0;points=[];autosize=1;strokeColor=none;fillColor=none;" vertex="1" parent="1">
          <mxGeometry x="1180" y="960" width="60" height="30" as="geometry" />
        </mxCell>
        <mxCell id="rKBE9lLJu66GJcNyoKMq-23" value="&lt;font style=&quot;font-size: 10px;&quot;&gt;H = 2 = 2&lt;/font&gt;" style="text;html=1;align=center;verticalAlign=middle;resizable=0;points=[];autosize=1;strokeColor=none;fillColor=none;" vertex="1" parent="1">
          <mxGeometry x="1180" y="340" width="60" height="30" as="geometry" />
        </mxCell>
        <mxCell id="rKBE9lLJu66GJcNyoKMq-24" value="&lt;font style=&quot;font-size: 10px;&quot;&gt;H = 3 = 3&lt;/font&gt;" style="text;html=1;align=center;verticalAlign=middle;resizable=0;points=[];autosize=1;strokeColor=none;fillColor=none;" vertex="1" parent="1">
          <mxGeometry x="1040" y="470" width="60" height="30" as="geometry" />
        </mxCell>
        <mxCell id="rKBE9lLJu66GJcNyoKMq-25" value="&lt;font style=&quot;font-size: 10px;&quot;&gt;H = 3 = 3&lt;/font&gt;" style="text;html=1;align=center;verticalAlign=middle;resizable=0;points=[];autosize=1;strokeColor=none;fillColor=none;" vertex="1" parent="1">
          <mxGeometry x="876.5" y="470" width="60" height="30" as="geometry" />
        </mxCell>
        <mxCell id="rKBE9lLJu66GJcNyoKMq-26" value="&lt;font style=&quot;font-size: 10px;&quot;&gt;H = 1 = 1&lt;/font&gt;" style="text;html=1;align=center;verticalAlign=middle;resizable=0;points=[];autosize=1;strokeColor=none;fillColor=none;" vertex="1" parent="1">
          <mxGeometry x="716.5" y="470" width="60" height="30" as="geometry" />
        </mxCell>
        <mxCell id="rKBE9lLJu66GJcNyoKMq-27" value="&lt;font style=&quot;font-size: 10px;&quot;&gt;H = 2 = 2&lt;/font&gt;" style="text;html=1;align=center;verticalAlign=middle;resizable=0;points=[];autosize=1;strokeColor=none;fillColor=none;" vertex="1" parent="1">
          <mxGeometry x="556.5" y="475" width="60" height="30" as="geometry" />
        </mxCell>
      </root>
    </mxGraphModel>
  </diagram>
</mxfile>
